<?xml version="1.0" encoding="UTF-8" standalone="no"?>
<svg
   xmlns:dc="http://purl.org/dc/elements/1.1/"
   xmlns:cc="http://creativecommons.org/ns#"
   xmlns:rdf="http://www.w3.org/1999/02/22-rdf-syntax-ns#"
   xmlns:svg="http://www.w3.org/2000/svg"
   xmlns="http://www.w3.org/2000/svg"
   xmlns:xlink="http://www.w3.org/1999/xlink"
   xmlns:sodipodi="http://sodipodi.sourceforge.net/DTD/sodipodi-0.dtd"
   xmlns:inkscape="http://www.inkscape.org/namespaces/inkscape"
   id="Layer_1"
   data-name="Layer 1"
   viewBox="0 0 724.73807 346.79577"
   version="1.1"
   sodipodi:docname="intro.svg"
   inkscape:version="0.92.4 5da689c313, 2019-01-14"
   width="724.7381"
   height="346.79578">
  <metadata
     id="metadata206">
    <rdf:RDF>
      <cc:Work
         rdf:about="">
        <dc:format>image/svg+xml</dc:format>
        <dc:type
           rdf:resource="http://purl.org/dc/dcmitype/StillImage" />
        <dc:title>Architect</dc:title>
      </cc:Work>
    </rdf:RDF>
  </metadata>
  <sodipodi:namedview
     pagecolor="#ffffff"
     bordercolor="#666666"
     borderopacity="1"
     objecttolerance="10"
     gridtolerance="10"
     guidetolerance="10"
     inkscape:pageopacity="0"
     inkscape:pageshadow="2"
     inkscape:window-width="2558"
     inkscape:window-height="1417"
     id="namedview204"
     showgrid="false"
     inkscape:zoom="5.7425276"
     inkscape:cx="563.51655"
     inkscape:cy="199.20414"
     inkscape:window-x="0"
     inkscape:window-y="21"
     inkscape:window-maximized="0"
     inkscape:current-layer="Layer_1"
     fit-margin-top="0"
     fit-margin-left="0"
     fit-margin-right="0"
     fit-margin-bottom="0"
     showguides="true" />
  <defs
     id="defs51">
    <linearGradient
       gradientUnits="userSpaceOnUse"
       y2="285.13"
       x2="3.99"
       y1="138.47"
       x1="178.75"
       id="linearGradient1835">
      <stop
         id="stop1829"
         stop-opacity="0"
         stop-color="#fff"
         offset="0.02"
         style="stop-color:#cccccc;stop-opacity:0.3764706" />
      <stop
         id="stop1833"
         stop-color="#fff"
         offset="1"
         style="stop-color:#ffffff;stop-opacity:0.3764706" />
    </linearGradient>
    <linearGradient
       inkscape:collect="always"
       id="linearGradient2117">
      <stop
         style="stop-color:#7f6ce7;stop-opacity:1;"
         offset="0"
         id="stop2113" />
      <stop
         style="stop-color:#aea9e9;stop-opacity:1"
         offset="1"
         id="stop2115" />
    </linearGradient>
    <linearGradient
       inkscape:collect="always"
       id="linearGradient2109">
      <stop
         style="stop-color:#6c56e4;stop-opacity:1;"
         offset="0"
         id="stop2105" />
      <stop
         style="stop-color:#877ae4;stop-opacity:1"
         offset="1"
         id="stop2107" />
    </linearGradient>
    <linearGradient
       inkscape:collect="always"
       id="linearGradient2101">
      <stop
         style="stop-color:#634de1;stop-opacity:1;"
         offset="0"
         id="stop2097" />
      <stop
         style="stop-color:#857ae2;stop-opacity:1"
         offset="1"
         id="stop2099" />
    </linearGradient>
    <linearGradient
       inkscape:collect="always"
       id="linearGradient2093">
      <stop
         style="stop-color:#7f6ce7;stop-opacity:1;"
         offset="0"
         id="stop2089" />
      <stop
         style="stop-color:#a598ee;stop-opacity:1"
         offset="1"
         id="stop2091" />
    </linearGradient>
    <linearGradient
       id="linear-gradient"
       x1="283.72"
       y1="303.17001"
       x2="292.04001"
       y2="303.17001"
       gradientUnits="userSpaceOnUse">
      <stop
         offset="0.01"
         id="stop2" />
      <stop
         offset="0.83"
         stop-opacity="0.07"
         id="stop4" />
      <stop
         offset="1"
         stop-opacity="0"
         id="stop6" />
    </linearGradient>
    <linearGradient
       id="linear-gradient-2"
       x1="285.70999"
       y1="292.42999"
       x2="279.75"
       y2="314.35999"
       gradientTransform="rotate(11.52,15.567561,-69.724237)"
       xlink:href="#linear-gradient" />
    <linearGradient
       id="linear-gradient-3"
       x1="245.36"
       y1="278.78"
       x2="253.67999"
       y2="278.78"
       xlink:href="#linear-gradient"
       gradientTransform="translate(-14.238989,-1.6945545)" />
    <linearGradient
       id="linear-gradient-4"
       x1="247.36"
       y1="268.04999"
       x2="241.39999"
       y2="289.98001"
       gradientTransform="rotate(11.52,15.560251,-69.747307)"
       xlink:href="#linear-gradient" />
    <linearGradient
       id="linear-gradient-5"
       x1="6823.1099"
       y1="280.29001"
       x2="6831.4302"
       y2="280.29001"
       gradientTransform="matrix(-1,0,0,1,7100.111,-1.6945545)"
       xlink:href="#linear-gradient" />
    <linearGradient
       id="linear-gradient-6"
       x1="6825.1001"
       y1="269.56"
       x2="6819.1401"
       y2="291.48001"
       gradientTransform="matrix(-0.2,-0.98,-0.98,0.2,1419.049,6956.8989)"
       xlink:href="#linear-gradient" />
    <linearGradient
       id="linear-gradient-7"
       x1="6864.3301"
       y1="302.98999"
       x2="6872.6499"
       y2="302.98999"
       gradientTransform="matrix(-1,0,0,1,7100.111,-1.6945545)"
       xlink:href="#linear-gradient" />
    <linearGradient
       id="linear-gradient-8"
       x1="6866.3301"
       y1="292.26001"
       x2="6860.3701"
       y2="314.17999"
       gradientTransform="matrix(-0.2,-0.98,-0.98,0.2,1419.0414,6956.9039)"
       xlink:href="#linear-gradient" />
    <linearGradient
       id="linear-gradient-9"
       x1="269.45001"
       y1="314.75"
       x2="262.87"
       y2="232.28"
       xlink:href="#linear-gradient"
       gradientTransform="translate(-14.238989,-1.6945545)" />
    <linearGradient
       id="linear-gradient-10"
       x1="263.26001"
       y1="287.57999"
       x2="268.39999"
       y2="276.38"
       xlink:href="#linear-gradient"
       gradientTransform="translate(-14.238989,-1.6945545)" />
    <linearGradient
       id="linear-gradient-11"
       x1="174.3"
       y1="289.95001"
       x2="210.41"
       y2="289.95001"
       xlink:href="#linear-gradient"
       gradientTransform="translate(-14.238989,-1.6945545)" />
    <linearGradient
       id="linear-gradient-12"
       x1="211.5"
       y1="234.99001"
       x2="267.37"
       y2="234.99001"
       xlink:href="#linear-gradient"
       gradientTransform="translate(-14.238989,-1.6945545)" />
    <linearGradient
       id="linear-gradient-13"
       x1="222.00999"
       y1="251.7"
       x2="299.79001"
       y2="251.7"
       xlink:href="#linear-gradient"
       gradientTransform="translate(-14.238989,-1.6945545)" />
    <linearGradient
       id="linear-gradient-14"
       x1="252.85001"
       y1="257.47"
       x2="302.31"
       y2="257.47"
       xlink:href="#linear-gradient"
       gradientTransform="translate(-14.238989,-1.6945545)" />
    <linearGradient
       id="linear-gradient-15"
       x1="126.36"
       y1="282.51001"
       x2="201.16"
       y2="126.34"
       xlink:href="#linear-gradient" />
    <linearGradient
       id="linear-gradient-16"
       x1="222.00999"
       y1="208.88"
       x2="111.67"
       y2="118.88"
       xlink:href="#linear-gradient" />
    <linearGradient
       id="linear-gradient-17"
       x1="178.75"
       y1="138.47"
       x2="3.99"
       y2="285.13"
       gradientUnits="userSpaceOnUse">
      <stop
         offset="0.02"
         stop-color="#fff"
         stop-opacity="0"
         id="stop24" />
      <stop
         offset="0.39"
         stop-color="#fff"
         stop-opacity="0.39"
         id="stop26" />
      <stop
         offset="1"
         stop-color="#fff"
         id="stop28" />
    </linearGradient>
    <linearGradient
       id="linear-gradient-18"
       x1="67.400002"
       y1="-29.139999"
       x2="231.87"
       y2="224.42"
       xlink:href="#linear-gradient-17" />
    <linearGradient
       id="linear-gradient-19"
       x1="157.72"
       y1="180.25999"
       x2="184.12"
       y2="180.25999"
       xlink:href="#linear-gradient" />
    <linearGradient
       id="linear-gradient-20"
       x1="138.14999"
       y1="173.14"
       x2="158.21001"
       y2="173.14"
       xlink:href="#linear-gradient" />
    <linearGradient
       id="linear-gradient-21"
       x1="114.4"
       y1="197.39"
       x2="134.42"
       y2="155.60001"
       xlink:href="#linear-gradient" />
    <linearGradient
       id="linear-gradient-22"
       x1="150.13"
       y1="214.37"
       x2="208.78999"
       y2="91.900002"
       xlink:href="#linear-gradient" />
    <linearGradient
       id="linear-gradient-23"
       x1="248.56"
       y1="134.98"
       x2="224.31"
       y2="168.27"
       xlink:href="#linear-gradient"
       gradientTransform="translate(-14.238989,-1.6945545)" />
    <linearGradient
       id="linear-gradient-24"
       x1="221.57001"
       y1="181.60001"
       x2="196.09"
       y2="205.85001"
       xlink:href="#linear-gradient"
       gradientTransform="translate(-14.238989,-1.6945545)" />
    <linearGradient
       id="linear-gradient-25"
       x1="268.89999"
       y1="181.45"
       x2="243.2"
       y2="135.53"
       xlink:href="#linear-gradient"
       gradientTransform="translate(-14.238989,-1.6945545)" />
    <linearGradient
       id="linear-gradient-26"
       x1="262.76999"
       y1="218.87"
       x2="233.07001"
       y2="185.97"
       xlink:href="#linear-gradient"
       gradientTransform="translate(-14.238989,-1.6945545)" />
    <linearGradient
       id="linear-gradient-27"
       x1="270.48001"
       y1="198.03"
       x2="315.03"
       y2="242.58"
       xlink:href="#linear-gradient"
       gradientTransform="translate(-14.238989,-1.6945545)" />
    <linearGradient
       id="linear-gradient-28"
       x1="278.34"
       y1="203.38"
       x2="313.48999"
       y2="238.52"
       xlink:href="#linear-gradient"
       gradientTransform="translate(-14.238989,-1.6945545)" />
    <linearGradient
       id="linear-gradient-29"
       x1="276.5"
       y1="237.55"
       x2="305.28"
       y2="248.69"
       xlink:href="#linear-gradient"
       gradientTransform="translate(-14.238989,-1.6945545)" />
    <linearGradient
       id="linear-gradient-30"
       x1="128.64999"
       y1="173.52"
       x2="141.53999"
       y2="146.59"
       xlink:href="#linear-gradient" />
    <linearGradient
       id="linear-gradient-31"
       x1="198.2"
       y1="174.42"
       x2="198.2"
       y2="174.42"
       xlink:href="#linear-gradient"
       gradientTransform="translate(-14.238989,-1.6945545)" />
    <linearGradient
       id="linear-gradient-32"
       x1="172.17"
       y1="189.49001"
       x2="172.17"
       y2="189.49001"
       xlink:href="#linear-gradient"
       gradientTransform="translate(-14.238989,-1.6945545)" />
    <linearGradient
       id="linear-gradient-33"
       x1="152.72"
       y1="160.17"
       x2="152.72"
       y2="160.17"
       xlink:href="#linear-gradient"
       gradientTransform="translate(-14.238989,-1.6945545)" />
    <linearGradient
       id="linear-gradient-34"
       x1="132.41"
       y1="184.13"
       x2="150.60001"
       y2="184.13"
       xlink:href="#linear-gradient" />
    <linearGradient
       id="linear-gradient-35"
       x1="176.84"
       y1="131.24001"
       x2="226.86"
       y2="131.24001"
       xlink:href="#linear-gradient" />
    <linearGradient
       id="linear-gradient-36"
       x1="184.67999"
       y1="202.52"
       x2="155.71001"
       y2="164.3"
       xlink:href="#linear-gradient" />
    <linearGradient
       id="linear-gradient-37"
       x1="209.74001"
       y1="134.71001"
       x2="225.64999"
       y2="134.71001"
       xlink:href="#linear-gradient"
       gradientTransform="translate(-14.238989,-1.6945545)" />
    <linearGradient
       inkscape:collect="always"
       xlink:href="#linear-gradient"
       id="linearGradient2023"
       gradientUnits="userSpaceOnUse"
       x1="283.72"
       y1="303.17001"
       x2="292.04001"
       y2="303.17001"
       gradientTransform="translate(-14.238989,-1.6945545)" />
    <linearGradient
       inkscape:collect="always"
       xlink:href="#linear-gradient-17"
       id="linearGradient2025"
       gradientUnits="userSpaceOnUse"
       x1="178.75"
       y1="138.47"
       x2="3.99"
       y2="285.13" />
    <linearGradient
       inkscape:collect="always"
       xlink:href="#linearGradient2093"
       id="linearGradient2095"
       x1="459.74176"
       y1="151.91071"
       x2="513.97251"
       y2="151.91071"
       gradientUnits="userSpaceOnUse" />
    <linearGradient
       inkscape:collect="always"
       xlink:href="#linearGradient2101"
       id="linearGradient2103"
       x1="501.96456"
       y1="235.91301"
       x2="554.87827"
       y2="235.91301"
       gradientUnits="userSpaceOnUse" />
    <linearGradient
       inkscape:collect="always"
       xlink:href="#linearGradient2109"
       id="linearGradient2111"
       x1="465.62038"
       y1="245.90017"
       x2="554.35973"
       y2="245.90017"
       gradientUnits="userSpaceOnUse" />
    <linearGradient
       inkscape:collect="always"
       xlink:href="#linearGradient2117"
       id="linearGradient2119"
       x1="244.85"
       y1="773.135"
       x2="621.67035"
       y2="876.02118"
       gradientUnits="userSpaceOnUse" />
    <linearGradient
       inkscape:collect="always"
       xlink:href="#linearGradient1835"
       id="linearGradient2135"
       x1="861.5"
       y1="162.75"
       x2="751.86981"
       y2="187.28543"
       gradientUnits="userSpaceOnUse" />
  </defs>
  <title
     id="title53">Architect</title>
  <path
     style="opacity:0.75;isolation:isolate;fill:#ffffff;fill-opacity:1"
     d="M 220.20508 0 C 191.001 0.043432603 162.97031 14.404688 139.85156 32.554688 C 115.19156 51.914688 94.341406 75.835938 70.191406 95.835938 C 55.311406 108.21594 39.051719 119.22461 26.511719 133.97461 C 8.1017187 155.62461 -1.0784374 184.57461 0.1015625 212.97461 A 131.43 131.43 0 0 0 17.400391 272.08594 A 140.2 140.2 0 0 0 30.400391 291.08594 C 37.650391 300.04594 46.071641 308.23539 56.181641 313.77539 C 81.621641 327.72539 110.47148 322.07555 137.77148 327.18555 C 169.65148 333.16555 196.25133 349.39633 230.11133 343.48633 C 249.56133 340.09633 267.31195 330.5357 284.50195 320.8457 C 298.63195 312.8757 312.88086 304.52453 323.63086 292.39453 C 334.2849 280.36033 340.74332 265.57148 346.98047 250.66602 A 131.43 131.43 0 0 0 357.51758 274.12109 A 140.2 140.2 0 0 0 370.51758 293.12109 C 377.76758 302.08109 386.18883 310.27055 396.29883 315.81055 C 421.73883 329.76055 450.58867 324.1107 477.88867 329.2207 C 509.76867 335.2007 536.36852 351.43148 570.22852 345.52148 C 589.67852 342.13148 607.42914 332.57086 624.61914 322.88086 C 638.74914 314.91086 652.99805 306.56164 663.74805 294.43164 C 678.87805 277.34164 685.55867 254.70078 695.13867 234.05078 C 697.76867 228.34078 700.65859 222.70078 703.55859 217.05078 C 713.55859 197.58078 723.66859 177.99164 723.55859 156.43164 C 723.45859 136.50164 714.50836 117.82173 705.56836 100.01172 C 698.35836 85.641723 690.84766 71.111641 679.84766 59.431641 C 668.58766 47.501641 654.1575 39.131875 639.9375 30.921875 C 616.8775 17.601875 592.75773 3.9507031 566.17773 2.2207031 C 534.87773 0.18070311 504.62875 15.231797 479.96875 34.591797 C 455.30875 53.951797 434.45859 77.871094 410.30859 97.871094 C 399.45433 106.90173 387.87068 115.20954 377.52734 124.76562 C 374.18726 115.59878 369.82159 106.68123 365.45117 97.974609 C 358.24117 83.604609 350.73047 69.074531 339.73047 57.394531 C 328.47047 45.464531 314.04031 37.094766 299.82031 28.884766 C 276.76031 15.564766 252.64055 1.9155469 226.06055 0.18554688 C 224.1043 0.058046878 222.15202 -0.0028955069 220.20508 0 z "
     id="path55-6" />
  <path
     d="m 704.73811,217.05141 c -2.9,5.65 -5.79,11.29 -8.42,17 -9.58,20.65 -16.26,43.29 -31.39,60.38 -10.75,12.13 -25,20.48 -39.13,28.45 -17.19,9.69 -34.94,19.25 -54.39,22.64 -33.86,5.91 -60.46,-10.32 -92.34,-16.3 -27.3,-5.11 -56.15,0.54 -81.59,-13.41 -10.11,-5.54 -18.53,-13.73 -25.78,-22.69 a 140.2,140.2 0 0 1 -13,-19 c 23.51,-54.51 104,-94.65 199.56,-94.65 57.27,-0.05 109.08,14.34 146.48,37.58 z"
     style="opacity:0.43000004;isolation:isolate;fill:#7f6ce7"
     id="path57-7"
     inkscape:connector-curvature="0" />
  <path
     d="m 363.44101,215.01545 c -2.9,5.65 -5.79,11.29 -8.42,17 -9.58,20.65 -16.26,43.29 -31.39,60.38 -10.75,12.13 -25,20.48 -39.13,28.45 -17.19,9.69 -34.94,19.25 -54.39,22.64 -33.86,5.91 -60.46,-10.32 -92.34,-16.3 -27.3,-5.11 -56.149999,0.54 -81.589999,-13.41 -10.11,-5.54 -18.53,-13.73 -25.78,-22.69 a 140.2,140.2 0 0 1 -13,-19 c 23.51,-54.51 103.999999,-94.65 199.559999,-94.65 57.27,-0.05 109.08,14.34 146.48,37.58 z"
     style="opacity:0.43000004;isolation:isolate;fill:#7f6ce7"
     id="path57"
     inkscape:connector-curvature="0" />
  <path
     d="m 275.18101,300.30545 c 0.59,2.93 -0.22,5.57 -1.81,5.89 -0.4,0.08 -3.32,1.41 -3.72,1.21 -1.2,-0.59 0.2,-3.73 -0.25,-5.92 -0.45,-2.19 -3,-3.49 -2.17,-4.5 a 21.08,21.08 0 0 1 4,-1.39 c 1.53,-0.29 3.35,1.76 3.95,4.71 z"
     id="path59"
     inkscape:connector-curvature="0"
     style="fill:#3f3d56" />
  <path
     d="m 275.18101,300.30545 c 0.59,2.93 -0.22,5.57 -1.81,5.89 -0.4,0.08 -3.32,1.41 -3.72,1.21 -1.2,-0.59 0.2,-3.73 -0.25,-5.92 -0.45,-2.19 -3,-3.49 -2.17,-4.5 a 21.08,21.08 0 0 1 4,-1.39 c 1.53,-0.29 3.35,1.76 3.95,4.71 z"
     id="path61"
     inkscape:connector-curvature="0"
     style="fill:url(#linearGradient2023)" />
  <ellipse
     cx="202.85738"
     cy="349.61139"
     rx="2.95"
     ry="5.4099998"
     transform="rotate(-11.52)"
     id="ellipse63"
     style="fill:#3f3d56" />
  <ellipse
     cx="202.85738"
     cy="349.61139"
     rx="2.95"
     ry="5.4099998"
     transform="rotate(-11.52)"
     id="ellipse65"
     style="fill:#3f3d56" />
  <ellipse
     cx="202.49898"
     cy="349.95642"
     rx="1.83"
     ry="3.3599999"
     transform="rotate(-11.52)"
     id="ellipse67"
     style="fill:url(#linear-gradient-2)" />
  <path
     d="m 236.82101,275.90545 c 0.6,2.92 -0.21,5.56 -1.81,5.89 -0.4,0.08 -3.32,1.4 -3.72,1.21 -1.2,-0.6 0.2,-3.73 -0.25,-5.93 -0.45,-2.2 -3,-3.48 -2.16,-4.5 a 21.68,21.68 0 0 1 4,-1.38 c 1.57,-0.33 3.34,1.78 3.94,4.71 z"
     id="path69"
     inkscape:connector-curvature="0"
     style="fill:#3f3d56" />
  <path
     d="m 236.82101,275.90545 c 0.6,2.92 -0.21,5.56 -1.81,5.89 -0.4,0.08 -3.32,1.4 -3.72,1.21 -1.2,-0.6 0.2,-3.73 -0.25,-5.93 -0.45,-2.2 -3,-3.48 -2.16,-4.5 a 21.68,21.68 0 0 1 4,-1.38 c 1.57,-0.33 3.34,1.78 3.94,4.71 z"
     id="path71"
     inkscape:connector-curvature="0"
     style="fill:url(#linear-gradient-3)" />
  <ellipse
     cx="170.14243"
     cy="318.06436"
     rx="2.95"
     ry="5.4099998"
     transform="rotate(-11.52)"
     id="ellipse73"
     style="fill:#3f3d56" />
  <ellipse
     cx="170.14243"
     cy="318.06436"
     rx="2.95"
     ry="5.4099998"
     transform="rotate(-11.52)"
     id="ellipse75"
     style="fill:#3f3d56" />
  <ellipse
     cx="169.77423"
     cy="318.40741"
     rx="1.83"
     ry="3.3599999"
     transform="rotate(-11.52)"
     id="ellipse77"
     style="fill:url(#linear-gradient-4)" />
  <path
     d="m 271.30101,277.40545 c -0.6,2.93 0.21,5.57 1.81,5.89 0.4,0.08 3.31,1.41 3.71,1.21 1.21,-0.59 -0.19,-3.72 0.26,-5.92 0.45,-2.2 3,-3.48 2.16,-4.5 a 21,21 0 0 0 -4,-1.39 c -1.57,-0.32 -3.34,1.79 -3.94,4.71 z"
     id="path79"
     inkscape:connector-curvature="0"
     style="fill:#3f3d56" />
  <path
     d="m 271.30101,277.40545 c -0.6,2.93 0.21,5.57 1.81,5.89 0.4,0.08 3.31,1.41 3.71,1.21 1.21,-0.59 -0.19,-3.72 0.26,-5.92 0.45,-2.2 3,-3.48 2.16,-4.5 a 21,21 0 0 0 -4,-1.39 c -1.57,-0.32 -3.34,1.79 -3.94,4.71 z"
     id="path81"
     inkscape:connector-curvature="0"
     style="fill:url(#linear-gradient-5)" />
  <ellipse
     cx="-218.10934"
     cy="328.0936"
     rx="5.4099998"
     ry="2.95"
     transform="rotate(-78.48)"
     id="ellipse83"
     style="fill:#3f3d56" />
  <ellipse
     cx="-218.10934"
     cy="328.0936"
     rx="5.4099998"
     ry="2.95"
     transform="rotate(-78.48)"
     id="ellipse85"
     style="fill:#3f3d56" />
  <ellipse
     cx="-218.44101"
     cy="328.45886"
     rx="3.3599999"
     ry="1.83"
     transform="rotate(-78.48)"
     id="ellipse87"
     style="fill:url(#linear-gradient-6)" />
  <path
     d="m 230.08101,300.10545 c -0.6,2.93 0.21,5.57 1.81,5.89 0.39,0.08 3.31,1.41 3.71,1.21 1.2,-0.59 -0.19,-3.72 0.25,-5.92 0.44,-2.2 3,-3.48 2.17,-4.5 a 21.08,21.08 0 0 0 -4,-1.39 c -1.57,-0.32 -3.35,1.79 -3.94,4.71 z"
     id="path89"
     inkscape:connector-curvature="0"
     style="fill:#3f3d56" />
  <path
     d="m 230.08101,300.10545 c -0.6,2.93 0.21,5.57 1.81,5.89 0.39,0.08 3.31,1.41 3.71,1.21 1.2,-0.59 -0.19,-3.72 0.25,-5.92 0.44,-2.2 3,-3.48 2.17,-4.5 a 21.08,21.08 0 0 0 -4,-1.39 c -1.57,-0.32 -3.35,1.79 -3.94,4.71 z"
     id="path91"
     inkscape:connector-curvature="0"
     style="fill:url(#linear-gradient-7)" />
  <ellipse
     cx="-248.57916"
     cy="292.22687"
     rx="5.4099998"
     ry="2.95"
     transform="rotate(-78.48)"
     id="ellipse93"
     style="fill:#3f3d56" />
  <ellipse
     cx="-248.57916"
     cy="292.22687"
     rx="5.4099998"
     ry="2.95"
     transform="rotate(-78.48)"
     id="ellipse95"
     style="fill:#3f3d56" />
  <ellipse
     cx="-248.92862"
     cy="292.60391"
     rx="3.3599999"
     ry="1.83"
     transform="rotate(-78.48)"
     id="ellipse97"
     style="fill:url(#linear-gradient-8)" />
  <path
     d="m 248.84101,276.30545 -12.89,-7.91 a 11.36,11.36 0 0 0 -4.74,-2 c -1.73,-0.15 -3.67,0.74 -4.12,2.41 -0.72,2.63 2.33,4.58 4.8,5.73 a 65.26,65.26 0 0 1 11.57,7 1.4,1.4 0 0 1 0.62,0.76 c 0.14,0.67 -0.65,1.11 -1.3,1.34 a 88.09,88.09 0 0 0 -14.68,6.67 7.72,7.72 0 0 0 -2.32,1.75 c -2,2.47 -0.56,6.09 0.92,8.88 a 3,3 0 0 0 1.37,1.56 2.81,2.81 0 0 0 1.91,-0.15 c 7.56,-2.57 13.08,-9.23 20.44,-12.32 a 7.29,7.29 0 0 1 3.26,-0.73 8.16,8.16 0 0 1 2.63,0.79 67,67 0 0 1 14.31,8.53 c 2.06,1.61 4.77,3.43 7,2.15 2,-1.11 2.16,-4.05 1,-6 -1.16,-1.95 -3.24,-3.09 -5.22,-4.17 l -12.76,-6.92 17.44,-7.85 a 5.3,5.3 0 0 0 2.32,-1.6 c 1.07,-1.56 0.21,-3.68 -0.68,-5.36 a 4.07,4.07 0 0 0 -1.69,-2 c -1,-0.48 -2.26,0 -3.3,0.49 a 116.28,116.28 0 0 0 -17.38,10.11 c 0.85,-3.15 -0.21,-6.47 -1.26,-9.56 l -1.87,-5.48 c -1.46,-4.29 -2.8,-0.32 -3.08,1.77 -0.5,4.05 -1.53,8.11 -2.3,12.11 z"
     id="path99"
     inkscape:connector-curvature="0"
     style="fill:#7f6ce7" />
  <path
     d="m 248.84101,276.30545 -12.89,-7.91 a 11.36,11.36 0 0 0 -4.74,-2 c -1.73,-0.15 -3.67,0.74 -4.12,2.41 -0.72,2.63 2.33,4.58 4.8,5.73 a 65.26,65.26 0 0 1 11.57,7 1.4,1.4 0 0 1 0.62,0.76 c 0.14,0.67 -0.65,1.11 -1.3,1.34 a 88.09,88.09 0 0 0 -14.68,6.67 7.72,7.72 0 0 0 -2.32,1.75 c -2,2.47 -0.56,6.09 0.92,8.88 a 3,3 0 0 0 1.37,1.56 2.81,2.81 0 0 0 1.91,-0.15 c 7.56,-2.57 13.08,-9.23 20.44,-12.32 a 7.29,7.29 0 0 1 3.26,-0.73 8.16,8.16 0 0 1 2.63,0.79 67,67 0 0 1 14.31,8.53 c 2.06,1.61 4.77,3.43 7,2.15 2,-1.11 2.16,-4.05 1,-6 -1.16,-1.95 -3.24,-3.09 -5.22,-4.17 l -12.76,-6.92 17.44,-7.85 a 5.3,5.3 0 0 0 2.32,-1.6 c 1.07,-1.56 0.21,-3.68 -0.68,-5.36 a 4.07,4.07 0 0 0 -1.69,-2 c -1,-0.48 -2.26,0 -3.3,0.49 a 116.28,116.28 0 0 0 -17.38,10.11 c 0.85,-3.15 -0.21,-6.47 -1.26,-9.56 l -1.87,-5.48 c -1.46,-4.29 -2.8,-0.32 -3.08,1.77 -0.5,4.05 -1.53,8.11 -2.3,12.11 z"
     id="path101"
     inkscape:connector-curvature="0"
     style="fill:url(#linear-gradient-9)" />
  <path
     d="m 249.65101,283.49545 a 3.72,3.72 0 0 0 1.64,1 3.63,3.63 0 0 0 3.89,-0.74 4.75,4.75 0 0 0 0.82,-2 38.11,38.11 0 0 0 0.46,-13.3 c -1.48,0 -3.09,-0.07 -4.29,0.8 -2.95,2.05 -5.17,11.32 -2.52,14.24 z"
     id="path103"
     inkscape:connector-curvature="0"
     style="fill:url(#linear-gradient-10)" />
  <path
     d="m 173.90101,283.98545 c -2.51,0.7 -5.15,0.83 -7.72,1.31 -2.57,0.48 -5.4,1.69 -6,4.22 -0.57,2.37 1.21,4.71 3.28,6 3.6,2.26 8.08,2.5 12.32,2.4 a 96.71,96.71 0 0 0 18.26,-2.19 3,3 0 0 0 1.68,-0.79 2.91,2.91 0 0 0 0.46,-1.91 46.5,46.5 0 0 0 -1.25,-10.44 4.69,4.69 0 0 0 -1.75,-3.14 4.82,4.82 0 0 0 -2.41,-0.5 c -2.78,-0.08 -7.88,-1 -10.3,0.43 -2.42,1.43 -3.43,3.75 -6.57,4.61 z"
     id="path105"
     inkscape:connector-curvature="0"
     style="fill:#3f3d56" />
  <path
     d="m 173.90101,283.98545 c -2.51,0.7 -5.15,0.83 -7.72,1.31 -2.57,0.48 -5.4,1.69 -6,4.22 -0.57,2.37 1.21,4.71 3.28,6 3.6,2.26 8.08,2.5 12.32,2.4 a 96.71,96.71 0 0 0 18.26,-2.19 3,3 0 0 0 1.68,-0.79 2.91,2.91 0 0 0 0.46,-1.91 46.5,46.5 0 0 0 -1.25,-10.44 4.69,4.69 0 0 0 -1.75,-3.14 4.82,4.82 0 0 0 -2.41,-0.5 c -2.78,-0.08 -7.88,-1 -10.3,0.43 -2.42,1.43 -3.43,3.75 -6.57,4.61 z"
     id="path107"
     inkscape:connector-curvature="0"
     style="fill:url(#linear-gradient-11)" />
  <path
     d="m 219.44101,200.69545 c -4.29,-1.56 -9.24,-2.81 -13.23,-0.62 -5.13,2.8 -6.09,9.63 -6.44,15.47 q -1.22,20 -2.42,39.95 c -0.16,2.68 -0.27,5.57 1.19,7.82 2,3.09 6.14,3.81 9.8,4.25 1.7,0.2 3.62,0.34 4.91,-0.79 a 6.08,6.08 0 0 0 1.56,-3.34 178.31,178.31 0 0 0 4.34,-31.27 31,31 0 0 0 17.9,10.89 11.38,11.38 0 0 0 5.47,0.05 11,11 0 0 0 5.29,-4 24.82,24.82 0 0 0 5.26,-13.54 c 0.38,-5.06 -1.07,-6.49 -4.93,-9.31 a 116,116 0 0 0 -28.7,-15.56 z"
     id="path109"
     inkscape:connector-curvature="0"
     style="fill:#3f3d56" />
  <path
     d="m 219.44101,200.69545 c -4.29,-1.56 -9.24,-2.81 -13.23,-0.62 -5.13,2.8 -6.09,9.63 -6.44,15.47 q -1.22,20 -2.42,39.95 c -0.16,2.68 -0.27,5.57 1.19,7.82 2,3.09 6.14,3.81 9.8,4.25 1.7,0.2 3.62,0.34 4.91,-0.79 a 6.08,6.08 0 0 0 1.56,-3.34 178.31,178.31 0 0 0 4.34,-31.27 31,31 0 0 0 17.9,10.89 11.38,11.38 0 0 0 5.47,0.05 11,11 0 0 0 5.29,-4 24.82,24.82 0 0 0 5.26,-13.54 c 0.38,-5.06 -1.07,-6.49 -4.93,-9.31 a 116,116 0 0 0 -28.7,-15.56 z"
     id="path111"
     inkscape:connector-curvature="0"
     style="fill:url(#linear-gradient-12)" />
  <path
     d="m 243.81101,275.93545 41.46,-38.72 c 3.69,-2.13 -31,-15.23 -34.71,-13.1 l -36.11,20.85 c -3.69,2.13 -6.69,7.84 -6.69,12.75 v 0 c 0,4.91 32.37,20.35 36.05,18.22 z"
     id="path113"
     inkscape:connector-curvature="0"
     style="fill:#7f6ce7" />
  <path
     d="m 243.81101,275.93545 41.46,-38.72 c 3.69,-2.13 -31,-15.23 -34.71,-13.1 l -36.11,20.85 c -3.69,2.13 -6.69,7.84 -6.69,12.75 v 0 c 0,4.91 32.37,20.35 36.05,18.22 z"
     id="path115"
     inkscape:connector-curvature="0"
     style="fill:url(#linear-gradient-13)" />
  <path
     d="m 245.28101,275.09545 36.12,-20.85 c 3.68,-2.13 6.67,-7.84 6.67,-12.75 v 0 c 0,-4.91 -3,-7.17 -6.67,-5 l -36.12,20.81 c -3.68,2.12 -6.67,7.83 -6.67,12.74 v 0 c 0,4.92 2.99,7.17 6.67,5.05 z"
     id="path117"
     inkscape:connector-curvature="0"
     style="fill:#7f6ce7" />
  <path
     d="m 245.28101,275.09545 36.12,-20.85 c 3.68,-2.13 6.67,-7.84 6.67,-12.75 v 0 c 0,-4.91 -3,-7.17 -6.67,-5 l -36.12,20.81 c -3.68,2.12 -6.67,7.83 -6.67,12.74 v 0 c 0,4.92 2.99,7.17 6.67,5.05 z"
     id="path119"
     inkscape:connector-curvature="0"
     style="fill:url(#linear-gradient-14)" />
  <path
     d="m 199.45101,218.75545 c -4.74,-0.44 -9.6,-0.69 -14.21,0.54 -4.61,1.23 -9,4.19 -10.8,8.59 -1.25,3 -1.23,6.31 -1.17,9.54 q 0.27,14 1.35,28 c 0.38,4.89 0.84,9.82 2.44,14.45 a 9,9 0 0 0 2.17,3.79 8.3,8.3 0 0 0 3.75,1.77 20.88,20.88 0 0 0 7.26,0.48 5.45,5.45 0 0 0 2.45,-0.72 c 1.31,-0.88 1.75,-2.58 2,-4.14 2,-13.12 -2.45,-26.78 0.7,-39.68 15,7.2 31.4,12.17 48,11.3 2.58,-0.13 13.73,-1.87 16.09,-2.93 7.08,-3.2 14.62,-11.69 13.7,-15.54 -0.92,-3.85 -22.42,-1.07 -25.42,-3.67 -5.7,-5 -12.53,-5.93 -19.64,-7.35 a 273.93,273.93 0 0 0 -28.67,-4.43 z"
     id="path121"
     inkscape:connector-curvature="0"
     style="fill:#3f3d56" />
  <polygon
     points="311.06,142.04 44.14,203.28 44.14,212.45 121.74,267.52 311.2,147.52 "
     id="polygon123"
     style="fill:#7f6ce7"
     transform="translate(0.03101084,-0.00455455)" />
  <polygon
     points="311.06,142.04 44.14,203.28 44.14,212.45 121.74,267.52 311.2,147.52 "
     id="polygon125"
     style="fill:url(#linear-gradient-15)"
     transform="translate(0.03101084,-0.00455455)" />
  <polygon
     points="272.43,122.31 96.53,177.38 44.14,203.28 121.81,258.75 311.06,142.04 "
     id="polygon127"
     style="fill:#7f6ce7"
     transform="translate(0.03101084,-0.00455455)" />
  <polygon
     points="272.43,122.31 96.53,177.38 44.14,203.28 121.81,258.75 311.06,142.04 "
     id="polygon129"
     style="fill:url(#linear-gradient-16)"
     transform="translate(0.03101084,-0.00455455)" />
  <polygon
     points="57.72,126.88 55.44,132.59 134.71,249.33 291.19,157.26 294.15,149.5 "
     id="polygon131"
     style="fill:#7f6ce7"
     transform="translate(0.03101084,-0.00455455)" />
  <polygon
     points="57.72,126.88 55.44,132.59 134.71,249.33 291.19,157.26 294.15,149.5 "
     id="polygon133"
     style="fill:url(#linearGradient2025)"
     transform="translate(0.03101084,-0.00455455)" />
  <polygon
     points="57.72,126.88 220.14,37.79 294.15,149.5 136.53,242.7 "
     id="polygon135"
     style="fill:#7f6ce7"
     transform="translate(0.03101084,-0.00455455)" />
  <polygon
     points="57.72,126.88 220.14,37.79 294.15,149.5 136.53,242.7 "
     id="polygon137"
     style="fill:url(#linear-gradient-18)"
     transform="translate(0.03101084,-0.00455455)" />
  <line
     x1="157.94101"
     y1="187.78545"
     x2="183.961"
     y2="172.72545"
     stroke-miterlimit="10"
     id="line139"
     style="fill:none;stroke:url(#linear-gradient-19);stroke-width:0.73000002;stroke-miterlimit:10" />
  <line
     x1="138.481"
     y1="158.47545"
     x2="157.94101"
     y2="187.78545"
     stroke-miterlimit="10"
     id="line141"
     style="fill:none;stroke:url(#linear-gradient-20);stroke-width:0.73000002;stroke-miterlimit:10" />
  <line
     x1="97.111015"
     y1="138.06546"
     x2="151.77101"
     y2="214.91545"
     stroke-miterlimit="10"
     id="line143"
     style="fill:none;stroke:url(#linear-gradient-21);stroke-width:0.73000002;stroke-miterlimit:10" />
  <polygon
     points="132.15,208.07 187.9,176.01 209.69,162.04 204.21,155.47 127.29,200.12 "
     id="polygon145"
     style="fill:#7f6ce7"
     transform="translate(0.03101084,-0.00455455)" />
  <polyline
     points="151.74 214.92 275.03 140.12 256.73 115.39 163.25 170.12 129.96 120.81 97.08 138.07"
     stroke-miterlimit="10"
     id="polyline147"
     style="fill:none;stroke:url(#linear-gradient-22);stroke-width:0.73000002;stroke-miterlimit:10"
     transform="translate(0.03101084,-0.00455455)" />
  <path
     d="m 208.94101,156.60545 c -3.55,-4.63 -6.65,-9.92 -11.71,-12.82 a 4.29,4.29 0 0 0 2.45,-4.8 c -0.36,-1.48 -1.21,-3.62 0.25,-4.09 a 2,2 0 0 1 1,0 c 7.67,1.55 12.2,9.35 18.71,13.68 1.73,1.14 3.62,2.05 5.25,3.33 a 28.36,28.36 0 0 1 3.66,3.69 l 11.47,13 a 2,2 0 0 1 0.72,1.64 c -0.11,0.56 -0.66,0.91 -1.16,1.2 -2.14,1.22 -6,4.6 -8.58,4.58 -2.58,-0.02 -5.79,-3.59 -7.66,-5.08 -5.22,-4.19 -10.43,-8.87 -14.4,-14.33 z"
     id="path149"
     inkscape:connector-curvature="0"
     style="fill:url(#linear-gradient-23)" />
  <path
     d="m 183.87101,198.30545 a 21.77,21.77 0 0 1 -5.85,-9.3 3.85,3.85 0 0 1 0.08,-3.35 3.79,3.79 0 0 1 2.79,-1.22 14.06,14.06 0 0 1 6.59,0.79 c 2.6,1 4.73,2.95 6.8,4.83 4,3.64 16.1,11.44 7.69,16.79 -6.67,4.26 -13.74,-4.44 -18.1,-8.54 z"
     id="path151"
     inkscape:connector-curvature="0"
     style="fill:url(#linear-gradient-24)" />
  <path
     d="m 187.93101,176.00545 a 1,1 0 0 0 -0.58,0.08 c -0.62,0.34 -0.29,1.27 -0.36,2 a 2.07,2.07 0 0 1 -2.38,1.59 6,6 0 0 1 -2.8,-1.46 3.92,3.92 0 0 0 -2.84,-1.17 3.65,3.65 0 0 0 -1.15,0.44 5.74,5.74 0 0 0 -2.72,2.24 4.07,4.07 0 0 0 -0.34,2 c 0.11,3.49 2.73,6.52 5.86,8.06 3.13,1.54 6.71,1.87 10.19,2 3.78,0.14 4.59,-4.77 3.42,-7.58 -1,-2.51 -3.28,-7.9 -6.3,-8.2 z"
     id="path153"
     inkscape:connector-curvature="0"
     style="fill:#e8b08d" />
  <path
     d="m 206.05101,132.37545 a 10.7,10.7 0 0 0 -8.28,-0.47 2.56,2.56 0 0 0 -1.2,0.83 2.78,2.78 0 0 0 0.21,2.72 20.46,20.46 0 0 0 2.21,3.6 8.19,8.19 0 0 1 1,1.29 13.41,13.41 0 0 1 0.56,2.37 2.08,2.08 0 0 0 0.42,1 1.84,1.84 0 0 0 0.65,0.41 13.88,13.88 0 0 1 2.52,1 c 0.31,0.21 0.58,0.47 0.91,0.66 0.63,0.36 1.63,0.17 2.37,0.35 a 6.55,6.55 0 0 0 3,0.22 c 2.7,-0.59 4,-4.5 3.12,-6.93 -1.14,-2.95 -4.71,-5.76 -7.49,-7.05 z"
     id="path155"
     inkscape:connector-curvature="0"
     style="fill:#e8b08d" />
  <path
     d="m 247.14101,148.78545 c -4.23,1.22 -8.65,2.91 -12.9,1.77 -2.86,-0.77 -5.21,-2.72 -7.56,-4.53 a 100.21,100.21 0 0 0 -8.9,-6.12 5.26,5.26 0 0 0 -2.62,-1 c -1.38,0 -2.53,1 -3.52,2 -2.74,2.6 -5.71,6.39 -3.95,9.74 a 8.79,8.79 0 0 0 3.56,3.12 q 7.29,4.31 14.71,8.4 a 23.5,23.5 0 0 0 5.79,2.54 24.24,24.24 0 0 0 5.71,0.44 h 11.18 a 39.37,39.37 0 0 0 10.84,-1 c 3.5,-1 6.83,-3.18 8.42,-6.46 7.01,-14.63 -14.14,-10.78 -20.76,-8.9 z"
     id="path157"
     inkscape:connector-curvature="0"
     style="fill:#7f6ce7" />
  <path
     d="m 247.14101,148.78545 c -4.23,1.22 -8.65,2.91 -12.9,1.77 -2.86,-0.77 -5.21,-2.72 -7.56,-4.53 a 100.21,100.21 0 0 0 -8.9,-6.12 5.26,5.26 0 0 0 -2.62,-1 c -1.38,0 -2.53,1 -3.52,2 -2.74,2.6 -5.71,6.39 -3.95,9.74 a 8.79,8.79 0 0 0 3.56,3.12 q 7.29,4.31 14.71,8.4 a 23.5,23.5 0 0 0 5.79,2.54 24.24,24.24 0 0 0 5.71,0.44 h 11.18 a 39.37,39.37 0 0 0 10.84,-1 c 3.5,-1 6.83,-3.18 8.42,-6.46 7.01,-14.63 -14.14,-10.78 -20.76,-8.9 z"
     id="path159"
     inkscape:connector-curvature="0"
     style="fill:url(#linear-gradient-25)" />
  <path
     d="m 281.76101,218.73545 c -2.21,8.76 -6.94,17.15 -14.36,22.31 -7.42,5.16 -17.7,6.56 -25.64,2.26 a 15.67,15.67 0 0 1 -7.82,-9.23 23.88,23.88 0 0 1 -0.59,-6.32 q -0.1,-23.38 1.44,-46.73 c 0.24,-3.56 0.52,-7.2 1.86,-10.51 1.55,-3.79 4.36,-6.88 7.12,-9.87 l 0.78,-0.84 c 4.15,-4.57 9.49,-10.54 15,-12.43 4,-1.37 8,-0.61 11.74,4.35 8.35,11.07 10.81,26.65 11.88,40.08 0.7,8.98 0.81,18.17 -1.41,26.93 z"
     id="path161"
     inkscape:connector-curvature="0"
     style="fill:#7f6ce7" />
  <path
     d="m 228.25101,179.86545 a 60.61,60.61 0 0 1 -12.58,13.49 3,3 0 0 1 -1.3,0.7 3,3 0 0 1 -2,-0.63 l -17.3,-10.42 a 38.83,38.83 0 0 0 -4.45,7.08 c -0.76,1.55 -1.42,3.33 -0.88,5 a 7.29,7.29 0 0 0 2.94,3.27 155.61,155.61 0 0 0 18.46,11.52 c 2.29,1.22 4.72,2.4 7.31,2.44 4.58,0.07 8.37,-3.37 11.63,-6.59 5.27,-5.21 10.63,-10.59 13.72,-17.32 2.24,-4.86 4.89,-17.28 -1.17,-20.84 -5.76,-3.42 -11.87,8.74 -14.38,12.3 z"
     id="path163"
     inkscape:connector-curvature="0"
     style="fill:#7f6ce7" />
  <path
     d="m 228.25101,179.86545 a 60.61,60.61 0 0 1 -12.58,13.49 3,3 0 0 1 -1.3,0.7 3,3 0 0 1 -2,-0.63 l -17.3,-10.42 a 38.83,38.83 0 0 0 -4.45,7.08 c -0.76,1.55 -1.42,3.33 -0.88,5 a 7.29,7.29 0 0 0 2.94,3.27 155.61,155.61 0 0 0 18.46,11.52 c 2.29,1.22 4.72,2.4 7.31,2.44 4.58,0.07 8.37,-3.37 11.63,-6.59 5.27,-5.21 10.63,-10.59 13.72,-17.32 2.24,-4.86 4.89,-17.28 -1.17,-20.84 -5.76,-3.42 -11.87,8.74 -14.38,12.3 z"
     id="path165"
     inkscape:connector-curvature="0"
     style="fill:url(#linear-gradient-26)" />
  <path
     d="m 259.52101,147.30545 c -5.48,1.89 -10.82,7.86 -15,12.43 -0.79,-2.5 0.36,-7.27 0.16,-9.43 a 29.56,29.56 0 0 1 -0.38,-5.54 6.24,6.24 0 0 1 2.47,-4.78 8.32,8.32 0 0 1 5,-0.92 5.82,5.82 0 0 1 1.94,0.33 5,5 0 0 1 1.63,1.35 24.26,24.26 0 0 1 4.18,6.56 z"
     id="path167"
     inkscape:connector-curvature="0"
     style="fill:#e6b28b" />
  <path
     d="m 232.86101,136.72545 a 22.21,22.21 0 0 0 4.2,9.07 c 2.19,2.55 5.58,4.28 8.9,3.73 a 10.36,10.36 0 0 0 4.07,-1.73 19.83,19.83 0 0 0 7.55,-11.21 42.16,42.16 0 0 0 1.07,-13.68 c -0.14,-2.62 -0.43,-5.35 -1.9,-7.52 -1.69,-2.5 -4.72,-3.84 -7.72,-4.26 a 46.62,46.62 0 0 0 -9.07,0.1 16.76,16.76 0 0 0 -5.65,0.9 c -4.2,1.79 -3.37,6.89 -3.32,10.67 a 58.55,58.55 0 0 0 1.87,13.93 z"
     id="path169"
     inkscape:connector-curvature="0"
     style="fill:#e8b08d" />
  <path
     d="m 243.99101,94.035445 a 15.17,15.17 0 0 0 -1.75,0.38 15.7,15.7 0 0 0 -10.76,11.190005 c -1.47,0.22 -3.07,0.5 -4,1.63 a 4.22,4.22 0 0 0 -0.44,4.25 c 1.95,4.87 6.45,5.87 10,9 a 5.79,5.79 0 0 1 0.51,0.48 12.32,12.32 0 0 1 3.13,6.83 29.71,29.71 0 0 1 0.35,4 q 0,1 0,2 c 0,0.62 -0.16,1.33 0.26,1.85 a 0.6,0.6 0 0 0 0.58,0.26 c 0.3,-0.08 0.37,-0.47 0.38,-0.79 a 12.64,12.64 0 0 1 0.28,-3.19 c 0.21,-0.72 0.7,-2.1 1.66,-2 a 1.42,1.42 0 0 1 0.86,0.54 6.79,6.79 0 0 1 -0.63,9.35 4.82,4.82 0 0 1 5.12,2.89 c 0.58,1.49 0.62,3.54 2.11,4.12 a 2.46,2.46 0 0 0 2.65,-0.9 7.16,7.16 0 0 0 1.19,-2.72 c 1.29,1.52 4,0.64 5,-1.09 1,-1.73 0.83,-3.85 0.79,-5.84 a 59.54,59.54 0 0 1 2,-14.77 c 1.69,-7.14 1.2,-12.22 -2.58,-18.69 a 20.87,20.87 0 0 0 -3.36,-4.500005 15.75,15.75 0 0 0 -13.35,-4.28 z"
     id="path171"
     inkscape:connector-curvature="0"
     style="fill:#3f3d56" />
  <path
     d="m 284.87101,185.74545 c -8.08,5.57 -15.69,11.79 -23.29,18 -3,2.47 -6.12,5 -8,8.44 -3.52,6.4 -2,14.31 -0.06,21.35 1,3.7 2.8,8 6.56,8.77 a 8.93,8.93 0 0 0 4.07,-0.27 c 5.35,-1.36 10.06,-4.48 14.65,-7.54 4.8,-3.21 9.88,-6.75 11.94,-12.15 a 25,25 0 0 0 1.27,-8.26 121.09,121.09 0 0 0 -0.89,-18.55 c -0.36,-3.34 -0.36,-13.88 -6.25,-9.79 z"
     id="path173"
     inkscape:connector-curvature="0"
     style="fill:#7f6ce7" />
  <path
     d="m 292.06101,214.09545 a 25.52,25.52 0 0 1 -1.27,8.26 c -2.07,5.4 -7.14,8.95 -11.95,12.15 -4.16,2.77 -8.42,5.6 -13.15,7.12 -0.49,0.16 -1,0.3 -1.49,0.43 a 9.12,9.12 0 0 1 -4.08,0.26 c -3.76,-0.8 -5.52,-5.07 -6.56,-8.77 -2,-7 -3.45,-15 0.07,-21.35 1.87,-3.42 5,-6 8,-8.43 7.61,-6.21 15.22,-12.43 23.29,-18 3.64,-2.52 5,0.51 5.64,4 0.37,2.17 0.47,4.52 0.63,5.79 a 121.09,121.09 0 0 1 0.87,18.54 z"
     id="path175"
     inkscape:connector-curvature="0"
     style="fill:url(#linear-gradient-27)" />
  <path
     d="m 292.06101,214.09545 a 25.52,25.52 0 0 1 -1.27,8.26 c -2.07,5.4 -7.14,8.95 -11.95,12.15 -4.16,2.77 -8.42,5.6 -13.15,7.12 a 18,18 0 0 1 -3.05,-6.54 c -2,-7 -3.45,-14.94 0.06,-21.34 1.88,-3.42 5,-6 8,-8.45 6.5,-5.32 13,-10.63 19.84,-15.54 0.37,2.17 0.47,4.52 0.63,5.79 a 121.09,121.09 0 0 1 0.89,18.55 z"
     id="path177"
     inkscape:connector-curvature="0"
     style="fill:url(#linear-gradient-28)" />
  <path
     d="m 283.08101,215.53545 c -0.71,12.34 -2.41,41.12 -2.95,43.27 -0.68,2.74 -3.42,4.8 -8.91,7.88 a 8.54,8.54 0 0 1 -1.19,0.56 c -5.14,2.05 -10.45,-0.9 -10.45,-0.9 l 8.9,-4.8 4.54,-38.24 c 0.17,-1.41 1.12,-4.43 2.09,-5.49 l 4.53,-3.7 a 2,2 0 0 1 3.44,1.42 z"
     id="path179"
     inkscape:connector-curvature="0"
     style="fill:#7f6ce7" />
  <path
     d="m 283.08101,215.53545 c -0.71,12.34 -2.41,41.12 -2.95,43.27 -0.68,2.74 -3.42,4.8 -8.91,7.88 a 8.54,8.54 0 0 1 -1.19,0.56 4.4,4.4 0 0 0 1.53,-1.94 c 0.34,-1.37 5.32,-39.23 5,-42.32 -0.32,-3.09 6.52,-7.45 6.52,-7.45 z"
     id="path181"
     inkscape:connector-curvature="0"
     style="fill:url(#linear-gradient-29)" />
  <line
     x1="119.92101"
     y1="169.09546"
     x2="150.33101"
     y2="151.00545"
     stroke-miterlimit="10"
     id="line183"
     style="fill:none;stroke:url(#linear-gradient-30);stroke-width:0.73000002;stroke-miterlimit:10" />
  <path
     d="M 183.96101,172.72545"
     stroke-miterlimit="10"
     id="path185"
     inkscape:connector-curvature="0"
     style="fill:none;stroke:url(#linear-gradient-31);stroke-width:0.73000002;stroke-miterlimit:10" />
  <path
     d="M 157.93101,187.79545"
     stroke-miterlimit="10"
     id="path187"
     inkscape:connector-curvature="0"
     style="fill:none;stroke:url(#linear-gradient-32);stroke-width:0.73000002;stroke-miterlimit:10" />
  <path
     d="M 138.48101,158.47545"
     stroke-miterlimit="10"
     id="path189"
     inkscape:connector-curvature="0"
     style="fill:none;stroke:url(#linear-gradient-33);stroke-width:0.73000002;stroke-miterlimit:10" />
  <line
     x1="132.63101"
     y1="189.60545"
     x2="150.44101"
     y2="178.64545"
     stroke-miterlimit="10"
     id="line191"
     style="fill:none;stroke:url(#linear-gradient-34);stroke-width:0.73000002;stroke-miterlimit:10" />
  <polyline
     points="193.87 154.3 177.36 129.71 213.8 108.48 226.54 132.31"
     stroke-miterlimit="10"
     id="polyline193"
     style="fill:none;stroke:url(#linear-gradient-35);stroke-width:0.73000002;stroke-miterlimit:10"
     transform="translate(0.03101084,-0.00455455)" />
  <polygon
     points="129.96,201.77 206.26,157.66 204.21,155.47 127.29,200.12 "
     id="polygon195"
     style="fill:url(#linear-gradient-36)"
     transform="translate(0.03101084,-0.00455455)" />
  <path
     d="m 196.97101,140.46545 12.1,-18.29 a 1.28,1.28 0 0 1 1.83,-0.32 v 0 a 1.29,1.29 0 0 1 0.29,1.74 l -12.6,18.65 -3.09,2.19 z"
     id="path197"
     inkscape:connector-curvature="0"
     style="fill:#7f6ce7" />
  <path
     d="m 196.97101,140.46545 12.1,-18.29 a 1.28,1.28 0 0 1 1.83,-0.32 v 0 a 1.29,1.29 0 0 1 0.29,1.74 l -12.6,18.65 -3.09,2.19 z"
     id="path199"
     inkscape:connector-curvature="0"
     style="fill:url(#linear-gradient-37)" />
  <path
     d="m 197.60101,138.63545 a 0.7,0.7 0 0 0 -0.55,0 0.67,0.67 0 0 0 -0.19,0.25 2.27,2.27 0 0 0 -0.29,1.73 2.48,2.48 0 0 0 1.38,1.28 c 0.83,0.39 2.78,2 3.7,2.1 0.57,0.06 0.14,-1.3 0.58,-1.67 a 1.65,1.65 0 0 0 0.51,-1.31 c 0,-1.46 -0.65,-1.47 -1.91,-1.73 z"
     id="path201"
     inkscape:connector-curvature="0"
     style="fill:#e8b08d" />
  <line
     class="cls-1"
     x1="542.00812"
     y1="140.45361"
     x2="571.84631"
     y2="141.23994"
     id="line1134"
     style="stroke-width:0.27982897" />
  <polygon
     transform="matrix(0.27982893,0,0,0.27982893,359.98495,18.893132)"
     class="cls-2"
     points="244.85,672.36 244.85,850.09 403.68,938.25 667.67,868.28 670.97,687.76 491.26,608.02 "
     id="polygon1136"
     style="opacity:0.74800002;fill:url(#linearGradient2119);fill-opacity:1" />
  <path
     inkscape:connector-curvature="0"
     class="cls-3"
     d="m 510.35383,188.09171 c 1.39915,-1.59503 38.69195,13.82355 44.0059,21.23341 5.31395,7.40987 -31.61787,63.37288 -46.64748,74.52406 -1.67898,-1.1501 -5.74769,-4.06591 -5.74769,-4.06591 0,0 12.64267,-38.81228 24.13525,-51.89708 -2.91582,-0.79472 -12.37683,-3.2712 -12.37683,-3.2712 l -10.37326,-32.46016 c 1.64818,-0.68558 5.16843,-1.9728 7.00411,-4.06312 z"
     id="path1138"
     style="fill:url(#linearGradient2103);fill-opacity:1;stroke-width:0.27982897" />
  <path
     inkscape:connector-curvature="0"
     class="cls-4"
     d="m 503.34972,192.15203 51.01001,104.41817 -7.39028,3.07811 c 0,0 -37.6258,-47.32187 -38.83746,-50.8505 -2.20786,-1.3264 -38.42891,-29.9613 -42.51161,-50.58189 5.79526,1.02138 28.02206,-1.07175 37.72934,-6.06389 z"
     id="path1140"
     style="fill:url(#linearGradient2111);fill-opacity:1;stroke-width:0.27982897" />
  <path
     inkscape:connector-curvature="0"
     class="cls-5"
     d="m 522.3417,132.985 c 3.00536,2.16028 6.30454,6.5396 8.0171,21.64197 3.03614,-1.39914 20.629,-9.8108 20.629,-9.8108 0,0 4.28137,2.41492 3.4251,3.58181 -0.85627,1.16688 -21.40691,22.34154 -27.47921,23.66514 -4.75709,1.09132 -16.73656,-14.71341 -17.04718,-16.42598 -0.31061,-1.71254 5.29157,-20.24001 5.29157,-20.24001 z"
     id="path1142"
     style="fill:#e8b08d;fill-opacity:1;stroke-width:0.27982897" />
  <ellipse
     class="cls-5"
     cx="106.61433"
     cy="563.69318"
     rx="7.4462481"
     ry="6.1758242"
     transform="rotate(-64.91)"
     id="ellipse1144"
     style="fill:#e8b08d;fill-opacity:1;stroke-width:0.27982897" />
  <path
     inkscape:connector-curvature="0"
     class="cls-6"
     d="m 498.50028,114.18048 c 9.23436,-6.62074 29.30928,13.18275 28.82238,16.8849 -0.4869,3.70212 -11.84796,18.35676 -19.35857,14.80013 -7.51061,-3.55662 -16.0286,-26.98669 -9.46381,-31.68503 z"
     id="path1146"
     style="fill:#857bd8;fill-opacity:1;stroke-width:0.27982897" />
  <path
     inkscape:connector-curvature="0"
     class="cls-7"
     d="m 488.42644,105.46941 c -37.51946,0 -29.01266,86.10338 -24.7173,90.97799 10.03467,5.5742 42.28216,-2.26941 46.65028,-8.35569 3.47548,-4.98935 12.20614,-82.6223 -21.93298,-82.6223 z"
     id="path1148"
     style="fill:url(#linearGradient2095);fill-opacity:1;stroke-width:0.27982897" />
  <path
     inkscape:connector-curvature="0"
     class="cls-5"
     d="m 450.30815,134.91862 c -2.16589,2.96898 -12.46638,29.66186 -9.86958,37.3012 4.57801,13.43178 36.21266,38.26941 36.21266,38.26941 0.55966,-2.23865 1.92803,-8.67471 1.92803,-8.67471 0,0 -21.60279,-30.03684 -22.7277,-32.28666 1.76571,-2.73112 9.47499,-17.8279 10.19975,-25.69949 0.72476,-7.87159 -15.74316,-8.90975 -15.74316,-8.90975 z"
     id="path1150"
     style="fill:#e8b08d;fill-opacity:1;stroke-width:0.27982897" />
  <path
     inkscape:connector-curvature="0"
     class="cls-8"
     d="m 493.74319,111.25349 c 0,2.75911 -12.01306,2.5968 -12.01306,0 V 93.666224 h 12.01306 z"
     id="path1152"
     style="fill:#e8b08d;fill-opacity:1;stroke-width:0.27982897" />
  <ellipse
     class="cls-5"
     cx="490.68225"
     cy="96.542564"
     rx="11.344265"
     ry="16.795334"
     transform="rotate(-1.08)"
     id="ellipse1154"
     style="fill:#e8b08d;fill-opacity:1;stroke-width:0.27982897" />
  <circle
     class="cls-5"
     cx="480.83185"
     cy="91.296074"
     r="3.2684021"
     id="circle1156"
     style="fill:#e8b08d;fill-opacity:1;stroke-width:0.27982897" />
  <path
     inkscape:connector-curvature="0"
     class="cls-2"
     d="m 513.0346,64.7515 c 0,-4.029537 -3.07813,-5.876408 -5.59658,-5.876408 -4.54443,0 -7.08528,3.637776 -11.19316,3.637776 -4.41291,0 -5.44827,-2.51846 -10.07384,-2.51846 -8.93775,0 -8.0227,9.206371 -9.86677,12.1054 -2.31979,3.637776 -3.84485,7.365098 -3.84485,10.001085 0,4.835445 2.97457,6.962145 5.38671,7.857597 a 3.268402,3.268402 0 0 1 5.97713,0.08395 c 1.69577,-0.733152 1.83289,-2.023164 1.83289,-2.448503 0,-1.541859 -1.65939,-4.197434 0.68278,-6.603964 1.97558,-2.034356 13.00085,-1.37396 14.95966,-3.718927 0.74434,1.119317 1.47469,3.444695 1.67897,4.079907 a 8.6159334,8.6159334 0 0 0 1.67898,0.190283 c 4.93898,0 6.71589,-2.518461 6.71589,-4.197434 0,-2.51846 -2.23863,-3.45029 -2.23863,-5.036922 -0.0168,-2.809481 3.90082,-2.459694 3.90082,-7.55538 z"
     id="path1158"
     style="fill:#3f3d56;fill-opacity:1;stroke-width:0.27982897" />
  <line
     class="cls-5"
     x1="507.05743"
     y1="104.00032"
     x2="508.68048"
     y2="104.32491"
     id="line1160"
     style="stroke-width:0.27982897" />
  <path
     inkscape:connector-curvature="0"
     class="cls-9"
     d="m 468.55859,114.07135 c 10.19136,4.65077 2.77029,30.78119 -0.6632,32.11878 -3.43351,1.33758 -21.5972,-1.32919 -22.15126,-9.30151 -0.55407,-7.97233 15.58927,-26.11925 22.81446,-22.81727 z"
     id="path1162"
     style="fill:#897bd8;fill-opacity:1;stroke-width:0.27982897" />
  <polygon
     transform="matrix(0.27982893,0,0,0.27982893,359.98495,18.893132)"
     points="678.06,1027.56 667.67,1002.29 692.46,991.9 743.95,991.9 747.25,1000.4 "
     id="polygon1164" />
  <polygon
     transform="matrix(0.27982893,0,0,0.27982893,359.98495,18.893132)"
     points="491.26,953.68 507.71,931.86 529.28,947.9 555.52,992.19 549.89,999.37 "
     id="polygon1166" />
  <path
     inkscape:connector-curvature="0"
     class="cls-4"
     d="m 653.39959,149.62643 c 1.39914,4.5836 -10.33968,5.53222 -11.00568,3.33835 -0.66599,-2.19385 9.51698,-8.24095 11.00568,-3.33835 z"
     id="path1168"
     style="fill:#6c56e4;fill-opacity:1;stroke-width:0.27982897" />
  <path
     inkscape:connector-curvature="0"
     class="cls-4"
     d="m 651.5667,161.45199 c 2.19387,4.25621 -9.17279,7.30634 -10.22214,5.26919 -1.04936,-2.03717 7.86039,-9.82479 10.22214,-5.26919 z"
     id="path1170"
     style="fill:#6c56e4;fill-opacity:1;stroke-width:0.27982897" />
  <path
     inkscape:connector-curvature="0"
     class="cls-4"
     d="m 652.2299,175.33151 c 2.19386,4.2562 -9.16999,7.30633 -10.22215,5.26919 -1.05215,-2.03717 7.87999,-9.8248 10.22215,-5.26919 z"
     id="path1172"
     style="fill:#6c56e4;fill-opacity:1;stroke-width:0.27982897" />
  <path
     inkscape:connector-curvature="0"
     class="cls-4"
     d="m 652.66364,188.18965 c 1.99518,3.87004 -7.92196,6.43606 -8.87618,4.5752 -0.95422,-1.86087 6.74108,-8.71387 8.87618,-4.5752 z"
     id="path1174"
     style="fill:#6c56e4;fill-opacity:1;stroke-width:0.27982897" />
  <path
     inkscape:connector-curvature="0"
     class="cls-4"
     d="m 653.91168,202.46093 c 1.99517,3.87003 -7.92197,6.43606 -8.87618,4.5752 -0.95422,-1.86086 6.73828,-8.71667 8.87618,-4.5752 z"
     id="path1176"
     style="fill:#6c56e4;fill-opacity:1;stroke-width:0.27982897" />
  <path
     inkscape:connector-curvature="0"
     class="cls-10"
     d="m 623.10251,257.34938 c 0.33859,-1.56984 16.72817,-13.26669 20.6094,-31.36323 6.32413,-29.49676 -6.97893,-47.80318 -2.4625,-68.8743 0.83949,-3.98197 3.91761,-16.45115 11.32748,-20.16168"
     id="path1178"
     style="fill:none;stroke:#6c56e4;stroke-width:1.43778503;stroke-miterlimit:4;stroke-dasharray:none;stroke-opacity:1" />
  <path
     inkscape:connector-curvature="0"
     class="cls-4"
     d="m 636.97923,221.08355 c 3.77209,-2.17707 6.79983,7.60574 4.99214,8.64951 -1.80769,1.04376 -9.03008,-6.31855 -4.99214,-8.64951 z"
     id="path1180"
     style="fill:#6c56e4;fill-opacity:1;stroke-width:0.27982897" />
  <path
     inkscape:connector-curvature="0"
     class="cls-4"
     d="m 636.77215,209.63294 c 2.88783,-3.26001 8.85659,5.0621 7.47423,6.62356 -1.38235,1.56144 -10.56635,-3.13689 -7.47423,-6.62356 z"
     id="path1182"
     style="fill:#6c56e4;fill-opacity:1;stroke-width:0.27982897" />
  <path
     inkscape:connector-curvature="0"
     class="cls-4"
     d="m 637.16111,196.20675 c 2.88784,-3.26 8.85659,5.06211 7.47423,6.62355 -1.38235,1.56145 -10.56633,-3.13408 -7.47423,-6.62355 z"
     id="path1184"
     style="fill:#6c56e4;fill-opacity:1;stroke-width:0.27982897" />
  <path
     inkscape:connector-curvature="0"
     class="cls-4"
     d="m 635.11835,185.02479 c 2.23865,-3.74132 9.64852,3.31597 8.58237,5.10687 -1.06615,1.7909 -10.9665,-1.10252 -8.58237,-5.10687 z"
     id="path1186"
     style="fill:#6c56e4;fill-opacity:1;stroke-width:0.27982897" />
  <path
     inkscape:connector-curvature="0"
     class="cls-4"
     d="m 632.15218,169.59222 c 2.79828,-3.33556 8.9909,4.81866 7.65053,6.41648 -1.34039,1.59783 -10.64751,-2.84587 -7.65053,-6.41648 z"
     id="path1188"
     style="fill:#6c56e4;fill-opacity:1;stroke-width:0.27982897" />
  <path
     inkscape:connector-curvature="0"
     class="cls-4"
     d="m 632.69784,153.21103 c 3.07812,-3.06411 8.5096,5.62456 7.02931,7.09366 -1.48031,1.46911 -10.33968,-3.80287 -7.02931,-7.09366 z"
     id="path1190"
     style="fill:#6c56e4;fill-opacity:1;stroke-width:0.27982897" />
  <path
     inkscape:connector-curvature="0"
     class="cls-4"
     d="m 622.77511,208.24778 c -0.8227,-2.19385 -1.39915,-8.185 -1.39915,-11.09801 0,-19.56283 -11.6157,-23.2258 -17.55646,-23.2258 -11.56254,0 -18.08535,10.69227 -18.08535,19.46211 0,7.75685 3.29079,14.65183 7.32593,20.47788 a 6.2317905,6.2317905 0 1 1 7.68131,9.4834 c 3.33275,3.71613 6.08907,6.60116 6.77464,8.53199 2.33099,6.45285 1.3208,9.51418 2.6388,12.67065 3.21242,7.6925 6.48363,11.69685 10.39843,11.35546 9.07766,-0.79191 12.66786,-8.49001 12.66786,-28.38304 0.014,-5.63576 -7.32312,-10.95812 -10.44601,-19.27464 z"
     id="path1194"
     style="fill:#6c56e4;fill-opacity:1;stroke-width:0.27982897" />
  <polygon
     transform="matrix(0.27982893,0,0,0.27982893,359.98495,18.893132)"
     class="cls-11"
     points="861.5,600.35 670.97,644.7 670.97,212.8 861.5,162.75 "
     id="polygon1196"
     style="opacity:0.856;fill-opacity:1;fill:url(#linearGradient2135)" />
  <path
     inkscape:connector-curvature="0"
     class="cls-2"
     d="m 637.62563,293.1451 h -24.74527 a 2.677963,2.677963 0 0 1 -2.54366,-1.83568 l -12.29847,-37.30679 a 2.6751647,2.6751647 0 0 1 2.54084,-3.51465 h 49.46537 a 2.677963,2.677963 0 0 1 2.54085,3.52304 l -12.41881,37.30399 a 2.6751647,2.6751647 0 0 1 -2.54085,1.83009 z"
     id="path1198"
     style="fill:#7f6ce7;fill-opacity:1;stroke-width:0.27982897" />
  <path
     inkscape:connector-curvature="0"
     class="cls-4"
     d="m 636.24119,140.29173 c 3.07812,-3.06411 8.5096,5.62456 7.02931,7.09366 -1.48031,1.46911 -10.33968,-3.80287 -7.02931,-7.09366 z"
     id="path1190-5"
     style="fill:#6c56e4;fill-opacity:1;stroke-width:0.27982897" />
</svg>
