<?xml version="1.0" encoding="utf-8" ?>
<svg xmlns="http://www.w3.org/2000/svg" xmlns:xlink="http://www.w3.org/1999/xlink" width="581" height="581">
	<defs>
		<linearGradient id="gradient_0" gradientUnits="userSpaceOnUse" x1="282.65289" y1="198.53058" x2="203.45897" y2="394.3891">
			<stop offset="0" stop-color="#01D655"/>
			<stop offset="1" stop-color="#022676"/>
		</linearGradient>
	</defs>
	<path fill="url(#gradient_0)" transform="matrix(1.162 0 0 1.162 0.00012207 0)" d="M315.59 227.735C315.723 226.612 320.035 217.724 320.781 215.791C322.002 212.627 322.837 209.352 323.634 206.06C324.033 204.414 324.556 200.124 325.84 199.065L326.249 199.244C326.487 199.64 326.72 200.033 326.995 200.404C330.518 205.177 335.37 215.864 337.388 221.564C341.692 230.913 344.467 241.136 346.099 251.276C349.695 273.622 347.834 294.997 339.972 316.284C329.752 343.955 310.727 360.901 288.937 379.574C283.081 384.592 277.381 389.798 271.554 394.853L257.135 407.364C254.608 409.577 252.243 412.179 249.329 413.886C245.833 411.848 242.707 408.661 239.639 406.017C234.07 401.237 228.528 396.425 223.015 391.581C193.383 365.532 163.559 342.322 153.067 302.274C150.851 293.815 149.004 284.658 149.246 275.869C148.304 264.262 150.262 250.631 153.113 239.32C154.643 233.679 156.151 227.84 158.597 222.515C161.815 228.586 164.601 234.785 168.214 240.649C170.095 243.702 175.267 249.908 176.38 252.583C186.428 265.628 197.674 278.845 203.121 294.656C205.949 302.864 207.428 311.742 209.533 320.168C210.829 325.358 212.64 330.455 214.339 335.524C216.629 340.981 219.426 346.21 222.694 351.144C225.497 355.333 228.963 359.064 232.062 363.034C239.289 372.291 248.901 386.011 253.075 396.761C253.282 397.293 253.327 397.796 253.869 398.037C254.851 393.813 246.131 374.062 244.213 368.879C242.854 365.207 241.57 361.409 240.76 357.575C234.815 329.445 246.604 305.662 265.723 285.804C268.674 282.739 271.989 280.033 275.079 277.112C282.487 270.109 289.995 262.912 296.829 255.342C301.834 249.798 306.507 243.709 310.32 237.284C312.085 234.311 313.45 230.985 315.34 228.11L315.59 227.735Z"/>
	<path fill="#026B3E" transform="matrix(1.162 0 0 1.162 0.00012207 0)" d="M158.597 222.515C161.815 228.586 164.601 234.785 168.214 240.649C170.095 243.702 175.267 249.908 176.38 252.583C186.428 265.628 197.674 278.845 203.121 294.656C205.949 302.864 207.428 311.742 209.533 320.168C210.829 325.358 212.64 330.455 214.339 335.524L214.191 335.661L214.126 336.079C213.625 336.543 213.62 336.679 212.949 336.682C210.146 334.94 207.685 332.026 205.353 329.696L194.261 318.619C182.562 307.065 170.779 295.644 159.404 283.766C157.65 281.934 152.327 276.862 151.179 275.041C150.797 274.434 150.839 274.335 150.986 273.681L151.405 273.543C151.86 274.413 152.326 275.296 152.857 276.122C154.062 278.001 155.941 279.547 157.495 281.142C161.057 284.802 164.645 288.437 168.258 292.046L192.465 316.293L199.103 322.812C199.817 323.51 200.353 324.376 201.091 325.058C201.365 325.311 201.622 325.404 201.978 325.485C202.968 325.195 204.347 325.258 205.114 324.686C204.328 324.436 203.756 324.207 203.094 323.71C203.172 322.643 203.997 321.428 204.483 320.475C204.07 318.677 169.964 292.088 165.275 287.895C160.936 284.014 155.882 278.494 152.467 273.809C151.693 272.748 150.367 271.442 149.927 270.211C149.882 270.087 149.845 269.961 149.804 269.836C149.152 270.58 149.683 274.234 149.364 275.451C149.327 275.591 149.285 275.73 149.246 275.869C148.304 264.262 150.262 250.631 153.113 239.32C154.643 233.679 156.151 227.84 158.597 222.515Z"/>
	<path fill="#249E30" transform="matrix(1.162 0 0 1.162 0.00012207 0)" d="M158.597 222.515C161.815 228.586 164.601 234.785 168.214 240.649C170.095 243.702 175.267 249.908 176.38 252.583L176.236 252.953C176.17 252.907 176.099 252.869 176.038 252.817C174.139 251.229 162.268 232.289 160.688 229.125C160.214 228.173 160.036 227.345 159.812 226.327C159.646 225.573 159.28 224.667 158.633 224.229C156.455 226.263 155.071 236.405 153.375 239.597L153.113 239.32C154.643 233.679 156.151 227.84 158.597 222.515Z"/>
	<path fill="#3EC645" transform="matrix(1.162 0 0 1.162 0.00012207 0)" d="M315.59 227.735C315.723 226.612 320.035 217.724 320.781 215.791C322.002 212.627 322.837 209.352 323.634 206.06C324.033 204.414 324.556 200.124 325.84 199.065L326.249 199.244C326.487 199.64 326.72 200.033 326.995 200.404C330.518 205.177 335.37 215.864 337.388 221.564C336.7 220.785 336.228 220.369 335.231 220.046L334.697 220.215C334.162 221.772 334.701 224.716 334.658 226.444C334.591 229.161 333.793 243.988 332.248 245.363C330.969 245.051 330.917 243.819 330.074 243.079C328.931 242.076 326.377 241.964 324.922 241.23C323.88 240.704 323.049 239.875 322.194 239.096C321.749 238.689 321.033 238.166 320.737 237.638C320.09 236.485 320.15 235.023 319.403 233.857C317.756 233.309 316.317 234.124 314.773 234.628C313.737 234.965 313.288 235.538 312.64 236.384L312.055 236.58C311.824 236.217 311.706 236.216 311.801 235.769C312.322 233.286 315.969 230.291 315.59 227.735Z"/>
	<defs>
		<linearGradient id="gradient_1" gradientUnits="userSpaceOnUse" x1="276.24896" y1="154.51656" x2="168.11072" y2="285.71854">
			<stop offset="0" stop-color="#14861C"/>
			<stop offset="1" stop-color="#005D40"/>
		</linearGradient>
	</defs>
	<path fill="url(#gradient_1)" transform="matrix(1.162 0 0 1.162 0.00012207 0)" d="M256.188 64.5418C257.039 65.289 257.752 66.0394 258.452 66.9296C263.674 73.6131 267.863 80.4818 271.217 88.2922L272.299 90.8703C275.306 98.0799 277.443 105.682 279.198 113.283L279.37 114.47C280.926 122.092 282.043 129.485 282.931 137.207C283.709 142.017 283.81 146.829 283.941 151.688C284.353 166.973 283.544 176.669 280.172 191.572C279.504 194.523 278.926 197.945 277.827 200.755C277.069 203.473 271.574 218.895 272.386 220.258C272.444 220.357 272.516 220.446 272.581 220.54C271.269 223.34 269.186 225.877 267.705 228.617C268.741 232.963 271.166 236.804 273.363 240.64C273.866 241.519 272.815 241.956 273.23 242.704C274.164 242.214 274.741 240.587 275.79 240.669C271.325 246.582 265.632 251.671 260.434 256.932C244.029 273.534 227.99 291.1 222.175 314.36C221.114 318.606 219.334 325.925 219.706 330.113L219.422 330.406C217.118 328.633 213.256 311.275 212.76 307.595C211.699 299.723 212.176 290.007 213.734 282.247C215.027 275.802 224.53 247.076 223.836 243.564L223.818 243.47L221.938 243.044C216.638 251.217 208.622 279.338 207.418 289.029C204.73 282.826 201.809 276.347 198.434 270.491C193.361 261.689 187.41 253.347 182.617 244.386C170.761 222.219 169.019 204.006 176.317 180.017C180.146 168.756 188.371 155.608 196.109 146.666C198.197 143.756 200.736 140.708 203.314 138.224C206.396 134.537 210.097 131.312 213.418 127.838C219.315 121.669 225.082 115.334 230.886 109.074L232.586 107.01C234.111 104.774 236.091 102.744 237.763 100.601C241.749 95.4927 245.552 89.9214 248.396 84.0874C249.693 81.3994 250.852 78.6465 251.867 75.8395C253.125 72.2936 253.797 67.4578 256.188 64.5418Z"/>
	<defs>
		<linearGradient id="gradient_2" gradientUnits="userSpaceOnUse" x1="218.63687" y1="241.08527" x2="244.02576" y2="179.47371">
			<stop offset="0" stop-color="#BC7B1E"/>
			<stop offset="1" stop-color="#FCB91F"/>
		</linearGradient>
	</defs>
	<path fill="url(#gradient_2)" transform="matrix(1.162 0 0 1.162 0.00012207 0)" d="M221.938 243.044C221.347 243.015 220.485 242.491 219.939 242.243C214.129 239.603 208.724 235.127 204.399 230.466C198.673 224.296 194.411 215.365 194.755 206.803C195.368 191.585 203.825 177.725 214.772 167.592C215.204 169.422 216.466 170.309 218.044 171.276C220.957 173.061 224.16 174.367 227.08 176.126C228.027 176.696 228.514 177.558 229.542 178.114C236.292 176.805 243.91 178.568 249.614 182.376C250.649 183.066 252.605 184.278 253.28 185.314C254.706 186.442 255.805 187.753 256.825 189.253C257.596 189.61 258.409 190.096 259.232 190.294L260.452 188.785L259.964 189.269C263.762 188.813 267.621 188.492 270.729 191.269C271.085 191.587 271.366 191.948 271.631 192.341L271.99 192.228C273.318 199.499 272.391 210.197 269.93 217.009C268.946 219.732 267.515 222.299 265.865 224.672C259.608 233.668 248.683 240.976 237.817 242.82C233.183 243.606 228.39 242.707 223.818 243.47L221.938 243.044Z"/>
	<path fill="#00245E" transform="matrix(1.162 0 0 1.162 0.00012207 0)" d="M229.542 178.114C236.292 176.805 243.91 178.568 249.614 182.376C250.649 183.066 252.605 184.278 253.28 185.314C254.706 186.442 255.805 187.753 256.825 189.253C258.097 191.581 258.852 193.872 259.282 196.495L258.822 196.514L258.324 194.841L258.343 195.143C258.383 195.823 258.471 196.338 258.102 196.945C258.39 199.621 258.557 202.184 258.366 204.875C258.071 206.227 257.836 207.611 257.322 208.898C257.242 209.242 257.246 209.265 257.1 209.651C254.884 215.534 249.691 220.639 243.964 223.098C237.562 225.848 231.271 225.983 224.822 223.377C216.826 220.146 213.262 214.795 210.007 207.157C209.863 204.638 209.766 202.146 209.787 199.622C210.161 196.582 211.028 193.755 212.421 191.028C212.446 191.013 212.476 191.005 212.496 190.984C213.965 189.4 215.685 186.92 215.895 184.746C220.085 181.331 224.255 179.224 229.542 178.114Z"/>
	<path fill="#18345B" transform="matrix(1.162 0 0 1.162 0.00012207 0)" d="M253.28 185.314C254.706 186.442 255.805 187.753 256.825 189.253C258.097 191.581 258.852 193.872 259.282 196.495L258.822 196.514L258.324 194.841L258.343 195.143C258.383 195.823 258.471 196.338 258.102 196.945C257.27 192.122 256.204 191.822 254.058 187.949C253.837 187.549 253.682 187.416 253.823 186.96L254.323 187.337C254.468 187.723 254.612 188.123 254.805 188.488C255.098 189.04 255.438 189.351 256.029 189.561C256.305 188.386 253.683 186.671 253.28 185.314Z"/>
	<defs>
		<linearGradient id="gradient_3" gradientUnits="userSpaceOnUse" x1="233.79778" y1="197.95169" x2="232.15363" y2="231.19577">
			<stop offset="0" stop-color="#3B788F"/>
			<stop offset="1" stop-color="#3498C5"/>
		</linearGradient>
	</defs>
	<path fill="url(#gradient_3)" transform="matrix(1.162 0 0 1.162 0.00012207 0)" d="M208.129 198.335L208.404 198.61C208.794 198.243 209.06 197.96 209.308 197.484L209.801 197.564L209.71 197.267C209.617 198.124 209.617 198.775 209.787 199.622C209.766 202.146 209.863 204.638 210.007 207.157C213.262 214.795 216.826 220.146 224.822 223.377C231.271 225.983 237.562 225.848 243.964 223.098C249.691 220.639 254.884 215.534 257.1 209.651C257.246 209.265 257.242 209.242 257.322 208.898C257.836 207.611 258.071 206.227 258.366 204.875C258.959 205.298 259.351 205.501 259.481 206.259C260.047 209.557 259.084 215.17 258.677 218.562C257.416 222.471 253.165 226.026 249.77 228.044C242.771 232.202 232.857 233.073 225.057 231.002C219.118 229.425 212.879 225.763 209.755 220.317C206.929 215.389 206.643 203.715 208.129 198.335Z"/>
	<path fill="#175D92" transform="matrix(1.162 0 0 1.162 0.00012207 0)" d="M210.007 207.157C213.262 214.795 216.826 220.146 224.822 223.377C231.271 225.983 237.562 225.848 243.964 223.098C249.691 220.639 254.884 215.534 257.1 209.651C257.246 209.265 257.242 209.242 257.322 208.898C258.101 211.41 258.077 213.172 256.965 215.651C254.792 220.497 249.779 224.039 244.978 225.944C238.118 228.665 229.246 228.873 222.449 225.858C216.869 223.382 212.205 218.932 210.119 213.104C209.444 211.219 209.12 209.016 210.007 207.157Z"/>
	<path fill="#175D92" transform="matrix(1.162 0 0 1.162 0.00012207 0)" d="M258.102 196.945C258.471 196.338 258.383 195.823 258.343 195.143L258.324 194.841L258.822 196.514L259.282 196.495C261.298 202.535 261.451 212.746 258.677 218.562C259.084 215.17 260.047 209.557 259.481 206.259C259.351 205.501 258.959 205.298 258.366 204.875C258.557 202.184 258.39 199.621 258.102 196.945Z"/>
	<path fill="#175D92" transform="matrix(1.162 0 0 1.162 0.00012207 0)" d="M210.369 191.698L210.795 191.811C211.117 191.464 211.432 191.16 211.801 190.864L212.421 191.028C211.028 193.755 210.161 196.582 209.787 199.622C209.617 198.775 209.617 198.124 209.71 197.267L209.801 197.564L209.308 197.484C209.06 197.96 208.794 198.243 208.404 198.61L208.129 198.335C208.384 196.185 209.313 193.579 210.369 191.698Z"/>
	<path fill="#18345B" transform="matrix(1.162 0 0 1.162 0.00012207 0)" d="M210.369 191.698C211.632 188.831 213.553 186.776 215.895 184.746C215.685 186.92 213.965 189.4 212.496 190.984C212.476 191.005 212.446 191.013 212.421 191.028L211.801 190.864C211.432 191.16 211.117 191.464 210.795 191.811L210.369 191.698Z"/>
	<defs>
		<linearGradient id="gradient_4" gradientUnits="userSpaceOnUse" x1="252.9637" y1="115.64292" x2="233.9592" y2="105.19966">
			<stop offset="0" stop-color="#2AA027"/>
			<stop offset="1" stop-color="#57CA43"/>
		</linearGradient>
	</defs>
	<path fill="url(#gradient_4)" transform="matrix(1.162 0 0 1.162 0.00012207 0)" d="M256.188 64.5418C257.039 65.289 257.752 66.0394 258.452 66.9296C263.674 73.6131 267.863 80.4818 271.217 88.2922C269.362 91.1849 268.403 96.3114 267.342 99.6496C263.603 111.417 258.743 124.03 250.376 133.282C246.977 137.049 243.314 140.569 239.414 143.816C241.102 140.649 242.139 137.177 243.832 134.036C243.817 133.832 243.792 133.581 243.81 133.382C243.879 132.593 244.141 132.057 243.601 131.356C243.243 130.892 242.83 130.447 242.449 129.999C238.639 139.407 233.134 147.839 224.585 153.591C228.145 146.13 229.606 138.657 230.746 130.538C230.562 129.067 230.783 127.815 230.832 126.359C230.855 125.689 230.757 125.134 230.283 124.64L229.988 124.765C229.318 125.841 228.88 126.866 228.46 128.05C228.418 125.51 229.586 118.134 230.144 115.504C230.468 113.981 231.267 111.995 231.266 110.473C231.266 109.899 231.122 109.583 230.886 109.074L232.586 107.01C234.111 104.774 236.091 102.744 237.763 100.601C241.749 95.4927 245.552 89.9214 248.396 84.0874C249.693 81.3994 250.852 78.6465 251.867 75.8395C253.125 72.2936 253.797 67.4578 256.188 64.5418Z"/>
	<defs>
		<linearGradient id="gradient_5" gradientUnits="userSpaceOnUse" x1="227.27687" y1="129.08971" x2="271.8869" y2="79.76059">
			<stop offset="0" stop-color="#43BF40"/>
			<stop offset="1" stop-color="#6EDA3F"/>
		</linearGradient>
	</defs>
	<path fill="url(#gradient_5)" transform="matrix(1.162 0 0 1.162 0.00012207 0)" d="M258.452 66.9296C263.674 73.6131 267.863 80.4818 271.217 88.2922C269.362 91.1849 268.403 96.3114 267.342 99.6496C263.603 111.417 258.743 124.03 250.376 133.282C246.977 137.049 243.314 140.569 239.414 143.816C241.102 140.649 242.139 137.177 243.832 134.036C245.227 130.469 246.922 126.994 248.149 123.364C252.023 111.896 254.105 99.699 256.117 87.7843C256.9 83.1439 256.902 78.5523 256.988 73.8604C257.02 72.1188 256.895 70.2816 257.122 68.5589C257.203 67.948 257.392 67.5268 257.703 67.0015L258.452 66.9296Z"/>
	<path fill="#249E30" transform="matrix(1.162 0 0 1.162 0.00012207 0)" d="M232.586 107.01C232.829 107.408 233.011 107.666 233.059 108.141C233.169 109.224 231.24 128.541 230.95 129.887C230.881 130.206 230.848 130.27 230.746 130.538C230.562 129.067 230.783 127.815 230.832 126.359C230.855 125.689 230.757 125.134 230.283 124.64L229.988 124.765C229.318 125.841 228.88 126.866 228.46 128.05C228.418 125.51 229.586 118.134 230.144 115.504C230.468 113.981 231.267 111.995 231.266 110.473C231.266 109.899 231.122 109.583 230.886 109.074L232.586 107.01Z"/>
	<defs>
		<linearGradient id="gradient_6" gradientUnits="userSpaceOnUse" x1="241.63553" y1="184.4911" x2="254.68752" y2="145.13626">
			<stop offset="0" stop-color="#FAB41E"/>
			<stop offset="1" stop-color="#FFDB27"/>
		</linearGradient>
	</defs>
	<path fill="url(#gradient_6)" transform="matrix(1.162 0 0 1.162 0.00012207 0)" d="M214.772 167.592C222.07 161.647 229.809 156.246 237.486 150.809C241.361 148.065 245.251 144.922 249.378 142.596C252.149 146.84 254.681 151.242 257.248 155.612C264.809 168.486 269.17 177.526 271.99 192.228L271.631 192.341C271.366 191.948 271.085 191.587 270.729 191.269C267.621 188.492 263.762 188.813 259.964 189.269L260.452 188.785L259.232 190.294C258.409 190.096 257.596 189.61 256.825 189.253C255.805 187.753 254.706 186.442 253.28 185.314C252.605 184.278 250.649 183.066 249.614 182.376C243.91 178.568 236.292 176.805 229.542 178.114C228.514 177.558 228.027 176.696 227.08 176.126C224.16 174.367 220.957 173.061 218.044 171.276C216.466 170.309 215.204 169.422 214.772 167.592Z"/>
	<path fill="#3EC645" transform="matrix(1.162 0 0 1.162 0.00012207 0)" d="M271.217 88.2922L272.299 90.8703C275.306 98.0799 277.443 105.682 279.198 113.283L279.37 114.47C280.926 122.092 282.043 129.485 282.931 137.207C282.544 137.443 282.27 137.648 281.82 137.736C280.573 140.321 278.014 142.705 276.3 145.078C272.734 150.017 269.713 155.865 265.507 160.271C265.524 159.477 264.807 158.722 264.39 158.026C263.509 155.439 261.454 152.597 260.141 150.143C258.472 148.705 257.404 146.397 256.164 144.573L256.25 142.544C256.235 142.153 256.259 141.591 256.161 141.207C255.969 140.454 255.259 139.909 254.622 139.556C254.309 139.383 253.991 139.226 253.703 139.012C252.488 138.108 252.464 136.973 252.239 135.602C252.043 134.412 251.287 133.949 250.376 133.282C258.743 124.03 263.603 111.417 267.342 99.6496C268.403 96.3114 269.362 91.1849 271.217 88.2922Z"/>
	<path fill="#3EC645" transform="matrix(1.162 0 0 1.162 0.00012207 0)" d="M279.198 113.283L279.37 114.47C280.926 122.092 282.043 129.485 282.931 137.207C282.544 137.443 282.27 137.648 281.82 137.736C280.573 140.321 278.014 142.705 276.3 145.078C272.734 150.017 269.713 155.865 265.507 160.271C265.524 159.477 264.807 158.722 264.39 158.026C263.509 155.439 261.454 152.597 260.141 150.143C258.472 148.705 257.404 146.397 256.164 144.573C260.74 140.58 269.174 127.73 272.733 122.421C274.263 120.14 276.96 114.656 279.198 113.283Z"/>
	<path fill="#249E30" transform="matrix(1.162 0 0 1.162 0.00012207 0)" d="M279.198 113.283L279.37 114.47C279.033 114.684 278.797 114.825 278.563 115.156C278.016 115.93 277.711 117.146 277.28 118.013C276.36 119.839 275.376 121.631 274.331 123.388C271.74 127.761 261.444 142.78 260.599 146.584C260.338 147.758 260.235 148.945 260.141 150.143C258.472 148.705 257.404 146.397 256.164 144.573C260.74 140.58 269.174 127.73 272.733 122.421C274.263 120.14 276.96 114.656 279.198 113.283Z"/>
	<path fill="#249E30" transform="matrix(1.162 0 0 1.162 0.00012207 0)" d="M264.39 158.026C265.509 157.244 266.591 155.346 267.463 154.227C271.473 149.082 275.364 143.947 279.07 138.577C279.547 137.887 280.347 136.43 280.985 135.969C281.083 135.898 281.219 135.906 281.335 135.874C281.771 136.399 281.75 137.084 281.82 137.736C280.573 140.321 278.014 142.705 276.3 145.078C272.734 150.017 269.713 155.865 265.507 160.271C265.524 159.477 264.807 158.722 264.39 158.026Z"/>
	<path fill="#249E30" transform="matrix(1.162 0 0 1.162 0.00012207 0)" d="M271.217 88.2922L272.299 90.8703C271.457 91.4667 271.5 91.6839 271.333 92.664C269.849 101.365 266.839 110.481 263.421 118.62C261.469 123.267 259.144 127.778 257.543 132.564C256.482 135.732 257.289 139.437 256.25 142.544C256.235 142.153 256.259 141.591 256.161 141.207C255.969 140.454 255.259 139.909 254.622 139.556C254.309 139.383 253.991 139.226 253.703 139.012C252.488 138.108 252.464 136.973 252.239 135.602C252.043 134.412 251.287 133.949 250.376 133.282C258.743 124.03 263.603 111.417 267.342 99.6496C268.403 96.3114 269.362 91.1849 271.217 88.2922Z"/>
	<defs>
		<linearGradient id="gradient_7" gradientUnits="userSpaceOnUse" x1="263.88287" y1="191.21613" x2="294.73459" y2="146.02274">
			<stop offset="0" stop-color="#158B2E"/>
			<stop offset="1" stop-color="#49C337"/>
		</linearGradient>
	</defs>
	<path fill="url(#gradient_7)" transform="matrix(1.162 0 0 1.162 0.00012207 0)" d="M282.931 137.207C283.709 142.017 283.81 146.829 283.941 151.688C284.353 166.973 283.544 176.669 280.172 191.572C279.504 194.523 278.926 197.945 277.827 200.755C277.432 200.443 277.584 200.546 277.188 200.293L276.924 200.127C275.752 197.64 276.363 194.235 275.881 191.507C275.38 188.622 274.762 185.76 274.027 182.926C273.262 180.02 271.229 175.568 271.294 172.759C271.257 172.01 270.806 171.515 270.388 170.927C268.921 167.316 267.135 163.814 265.507 160.271C269.713 155.865 272.734 150.017 276.3 145.078C278.014 142.705 280.573 140.321 281.82 137.736C282.27 137.648 282.544 137.443 282.931 137.207Z"/>
	<path fill="#249E30" transform="matrix(1.162 0 0 1.162 0.00012207 0)" d="M270.388 170.927C271.594 169.36 281.762 156.482 282.089 156.32C282.46 157.309 282.372 158.015 281.93 158.95C281.339 160.198 272.161 172.032 271.294 172.759C271.257 172.01 270.806 171.515 270.388 170.927Z"/>
	<defs>
		<linearGradient id="gradient_8" gradientUnits="userSpaceOnUse" x1="205.88699" y1="196.43944" x2="179.66315" y2="159.02542">
			<stop offset="0" stop-color="#027B37"/>
			<stop offset="1" stop-color="#28A93B"/>
		</linearGradient>
	</defs>
	<path fill="url(#gradient_8)" transform="matrix(1.162 0 0 1.162 0.00012207 0)" d="M196.109 146.666C196.434 146.874 196.58 147.005 196.973 147.036C196.12 151.013 197.493 155.709 198.038 159.713C198.477 162.941 198.82 166.579 198.602 169.842C198.243 175.204 196.445 180.967 194.803 186.088C194.162 188.087 193.246 190.183 192.879 192.237L192.593 192.33C191.938 188.209 187.912 162.996 186.519 161.758C185.198 163.664 186.282 169.486 186.694 171.762C187.982 178.872 188.379 186.113 188.968 193.309C189.405 198.652 189.999 203.983 190.417 209.327C186.049 202.078 181.5 193.73 179.22 185.556C178.861 184.268 178.656 182.054 178.064 180.941C177.833 180.506 177.11 180.205 176.667 180.082C176.552 180.05 176.433 180.039 176.317 180.017C180.146 168.756 188.371 155.608 196.109 146.666Z"/>
	<path fill="#2FAE3A" transform="matrix(1.162 0 0 1.162 0.00012207 0)" d="M230.886 109.074C231.122 109.583 231.266 109.899 231.266 110.473C231.267 111.995 230.468 113.981 230.144 115.504C229.586 118.134 228.418 125.51 228.46 128.05C227.193 136.062 226.21 149.022 221.106 155.224C219.227 157.508 216.844 159.137 214.627 161.053L214.482 142.095C214.464 142.024 214.445 141.954 214.429 141.883C213.977 139.967 214.45 135.981 213.088 134.65L212.694 134.603L212.879 135.21L212.505 135.327C212.788 135.692 212.635 135.528 212.962 135.825L212.454 135.835C212.293 138.419 212.356 141.355 211.821 143.871L211.631 141.973C210.869 139.947 212.04 132.638 212.233 130.293C210.883 129.771 205.79 137.334 204.164 138.066C203.901 138.184 203.597 138.172 203.314 138.224C206.396 134.537 210.097 131.312 213.418 127.838C219.315 121.669 225.082 115.334 230.886 109.074Z"/>
	<path fill="#249E30" transform="matrix(1.162 0 0 1.162 0.00012207 0)" d="M211.631 141.973C211.952 139.461 211.628 131.749 213.158 130.083L213.487 130.396C214.624 133.86 214.593 138.461 214.482 142.095C214.464 142.024 214.445 141.954 214.429 141.883C213.977 139.967 214.45 135.981 213.088 134.65L212.694 134.603L212.879 135.21L212.505 135.327C212.788 135.692 212.635 135.528 212.962 135.825L212.454 135.835C212.293 138.419 212.356 141.355 211.821 143.871L211.631 141.973Z"/>
	<path fill="#249E30" transform="matrix(1.162 0 0 1.162 0.00012207 0)" d="M203.314 138.224C203.597 138.172 203.901 138.184 204.164 138.066C205.79 137.334 210.883 129.771 212.233 130.293C212.04 132.638 210.869 139.947 211.631 141.973L211.821 143.871C211.654 150.848 211.065 159.079 207.858 165.35C207.054 166.923 205.906 168.305 204.925 169.769C204.106 170.99 203.379 172.538 202.355 173.57L202.447 173.002L202.319 173.043L202.326 172.645C202.362 168.9 199.086 149.536 197.578 146.862C197.111 146.867 197.307 146.793 196.973 147.036C196.58 147.005 196.434 146.874 196.109 146.666C198.197 143.756 200.736 140.708 203.314 138.224Z"/>
	<path fill="#2FAE3A" transform="matrix(1.162 0 0 1.162 0.00012207 0)" d="M300.398 159.085C300.828 153.737 301.513 148.516 301.349 143.126C301.272 140.593 300.715 138.108 300.58 135.588L300.412 135.456L300.588 135.154C301.079 135.392 301.1 135.515 301.288 136.014C301.894 137.629 301.813 139.494 302.221 141.163C302.479 142.219 302.938 143.219 303.19 144.281C304.002 147.696 305.45 155.213 305.533 158.638C306.178 162.071 305.901 165.955 305.948 169.461C305.988 172.452 306.111 175.492 305.902 178.476C304.746 195.026 298.296 210.726 288.999 224.334C285.108 230.03 280.681 235.799 275.79 240.669C274.741 240.587 274.164 242.214 273.23 242.704C272.815 241.956 273.866 241.519 273.363 240.64C271.166 236.804 268.741 232.963 267.705 228.617C269.186 225.877 271.269 223.34 272.581 220.54C274.574 218.809 276.098 216.477 277.637 214.348C285.805 203.055 293.016 189.708 296.889 176.267C298.508 170.646 299.039 164.937 300.348 159.293L300.398 159.085Z"/>
	<path fill="#3EC645" transform="matrix(1.162 0 0 1.162 0.00012207 0)" d="M300.398 159.085C300.828 153.737 301.513 148.516 301.349 143.126C301.272 140.593 300.715 138.108 300.58 135.588L300.412 135.456L300.588 135.154C301.079 135.392 301.1 135.515 301.288 136.014C301.894 137.629 301.813 139.494 302.221 141.163C302.479 142.219 302.938 143.219 303.19 144.281C304.002 147.696 305.45 155.213 305.533 158.638C305.519 159.534 305.493 160.408 305.387 161.299L305.223 161.195C305.172 158.854 305.013 155.551 303.907 153.468L303.417 153.387L302.786 154.381C301.978 153.55 301.931 153.271 301.654 152.129C301.484 154.461 301.57 157.342 300.668 159.497L300.398 159.085Z"/>
</svg>
